<svg width="43" height="51" viewBox="0 0 43 51" fill="none" xmlns="http://www.w3.org/2000/svg">
<path d="M9.5 34.0836C10.4499 31.344 12.2016 28.9904 14.5041 27.3602C16.8065 25.7299 19.5416 24.9067 22.3171 25.0084C25.0927 25.1102 27.7664 26.1317 29.9549 27.9266C32.1434 29.7215 33.7345 32.1976 34.5 35" stroke="#896DAD" stroke-width="2" stroke-linecap="round" stroke-linejoin="round"/>
<circle cx="21.5" cy="18" r="6" stroke="#896DAD" stroke-width="2"/>
<path d="M6.40723 40.8906V48H5.46973V41.6621H1.96387V48H1.02148V40.8906H6.40723ZM8.88281 43.7324V50.0312H7.97461V42.7168H8.80469L8.88281 43.7324ZM12.4424 45.3145V45.417C12.4424 45.8011 12.3968 46.1576 12.3057 46.4863C12.2145 46.8118 12.0811 47.0951 11.9053 47.3359C11.7327 47.5768 11.5195 47.764 11.2656 47.8975C11.0117 48.0309 10.7204 48.0977 10.3916 48.0977C10.0563 48.0977 9.76009 48.0423 9.50293 47.9316C9.24577 47.821 9.02767 47.6598 8.84863 47.4482C8.6696 47.2367 8.52637 46.9827 8.41895 46.6865C8.31478 46.3903 8.24316 46.0566 8.2041 45.6855V45.1387C8.24316 44.748 8.31641 44.3981 8.42383 44.0889C8.53125 43.7796 8.67285 43.516 8.84863 43.2979C9.02767 43.0765 9.24414 42.9089 9.49805 42.7949C9.75195 42.6777 10.0449 42.6191 10.377 42.6191C10.709 42.6191 11.0036 42.6842 11.2607 42.8145C11.5179 42.9414 11.7344 43.1237 11.9102 43.3613C12.0859 43.599 12.2178 43.8838 12.3057 44.2158C12.3968 44.5446 12.4424 44.9108 12.4424 45.3145ZM11.5342 45.417V45.3145C11.5342 45.0508 11.5065 44.8034 11.4512 44.5723C11.3958 44.3379 11.3096 44.1328 11.1924 43.957C11.0785 43.778 10.932 43.638 10.7529 43.5371C10.5739 43.4329 10.3607 43.3809 10.1133 43.3809C9.88542 43.3809 9.68685 43.4199 9.51758 43.498C9.35156 43.5762 9.20996 43.682 9.09277 43.8154C8.97559 43.9456 8.87956 44.0954 8.80469 44.2646C8.73307 44.4307 8.67936 44.6032 8.64355 44.7822V46.0469C8.70866 46.2747 8.7998 46.4896 8.91699 46.6914C9.03418 46.89 9.19043 47.0511 9.38574 47.1748C9.58105 47.2952 9.82682 47.3555 10.123 47.3555C10.3672 47.3555 10.5771 47.305 10.7529 47.2041C10.932 47.0999 11.0785 46.9583 11.1924 46.7793C11.3096 46.6003 11.3958 46.3952 11.4512 46.1641C11.5065 45.9297 11.5342 45.6807 11.5342 45.417ZM13.3555 45.417V45.3047C13.3555 44.9238 13.4108 44.5706 13.5215 44.2451C13.6322 43.9163 13.7917 43.6315 14 43.3906C14.2083 43.1465 14.4606 42.9577 14.7568 42.8242C15.0531 42.6875 15.3851 42.6191 15.7529 42.6191C16.124 42.6191 16.4577 42.6875 16.7539 42.8242C17.0534 42.9577 17.3073 43.1465 17.5156 43.3906C17.7272 43.6315 17.8883 43.9163 17.999 44.2451C18.1097 44.5706 18.165 44.9238 18.165 45.3047V45.417C18.165 45.7979 18.1097 46.151 17.999 46.4766C17.8883 46.8021 17.7272 47.0869 17.5156 47.3311C17.3073 47.5719 17.055 47.7607 16.7588 47.8975C16.4658 48.0309 16.1338 48.0977 15.7627 48.0977C15.3916 48.0977 15.0579 48.0309 14.7617 47.8975C14.4655 47.7607 14.2116 47.5719 14 47.3311C13.7917 47.0869 13.6322 46.8021 13.5215 46.4766C13.4108 46.151 13.3555 45.7979 13.3555 45.417ZM14.2588 45.3047V45.417C14.2588 45.6807 14.2897 45.9297 14.3516 46.1641C14.4134 46.3952 14.5062 46.6003 14.6299 46.7793C14.7568 46.9583 14.9147 47.0999 15.1035 47.2041C15.2923 47.305 15.512 47.3555 15.7627 47.3555C16.0101 47.3555 16.2266 47.305 16.4121 47.2041C16.6009 47.0999 16.7572 46.9583 16.8809 46.7793C17.0046 46.6003 17.0973 46.3952 17.1592 46.1641C17.2243 45.9297 17.2568 45.6807 17.2568 45.417V45.3047C17.2568 45.0443 17.2243 44.7985 17.1592 44.5674C17.0973 44.333 17.0029 44.1263 16.876 43.9473C16.7523 43.765 16.596 43.6217 16.4072 43.5176C16.2217 43.4134 16.0036 43.3613 15.7529 43.3613C15.5055 43.3613 15.2874 43.4134 15.0986 43.5176C14.9131 43.6217 14.7568 43.765 14.6299 43.9473C14.5062 44.1263 14.4134 44.333 14.3516 44.5674C14.2897 44.7985 14.2588 45.0443 14.2588 45.3047ZM25.3721 45.4512V45.5537C25.3721 45.9248 25.3314 46.2666 25.25 46.5791C25.1686 46.8883 25.0465 47.1569 24.8838 47.3848C24.7243 47.6126 24.5257 47.79 24.2881 47.917C24.0505 48.0407 23.7754 48.1025 23.4629 48.1025C23.2057 48.1025 22.9795 48.0684 22.7842 48C22.5889 47.9284 22.4229 47.8258 22.2861 47.6924C22.1527 47.5589 22.0452 47.3994 21.9639 47.2139C21.8857 47.0251 21.832 46.8135 21.8027 46.5791V44.2354C21.832 43.9847 21.8857 43.7601 21.9639 43.5615C22.0452 43.363 22.1527 43.1937 22.2861 43.0537C22.4229 42.9137 22.5872 42.8063 22.7793 42.7314C22.9714 42.6566 23.196 42.6191 23.4531 42.6191C23.707 42.6191 23.9349 42.6647 24.1367 42.7559C24.3418 42.8438 24.5208 42.9707 24.6738 43.1367C24.8301 43.3027 24.9587 43.5029 25.0596 43.7373C25.1637 43.9684 25.2419 44.2288 25.2939 44.5186C25.346 44.8083 25.3721 45.1191 25.3721 45.4512ZM24.4688 45.5537V45.4512C24.4688 45.2233 24.4525 45.0068 24.4199 44.8018C24.3906 44.5934 24.3434 44.403 24.2783 44.2305C24.2165 44.0547 24.1351 43.9017 24.0342 43.7715C23.9333 43.6413 23.8112 43.5404 23.668 43.4688C23.528 43.3971 23.3669 43.3613 23.1846 43.3613C22.9893 43.3613 22.8265 43.3857 22.6963 43.4346C22.5693 43.4834 22.4701 43.5485 22.3984 43.6299C22.3268 43.708 22.2747 43.791 22.2422 43.8789V46.9404C22.2812 47.012 22.3382 47.0804 22.4131 47.1455C22.488 47.2074 22.5889 47.2594 22.7158 47.3018C22.8428 47.3408 23.0023 47.3604 23.1943 47.3604C23.4222 47.3604 23.6159 47.3148 23.7754 47.2236C23.9382 47.1292 24.07 46.999 24.1709 46.833C24.2751 46.667 24.3499 46.4749 24.3955 46.2568C24.4443 46.0387 24.4688 45.8044 24.4688 45.5537ZM19.0977 45.5537V45.4512C19.0977 45.1191 19.1237 44.8083 19.1758 44.5186C19.2279 44.2288 19.306 43.9684 19.4102 43.7373C19.5143 43.5029 19.6429 43.3027 19.7959 43.1367C19.9521 42.9707 20.1312 42.8438 20.333 42.7559C20.5381 42.6647 20.7676 42.6191 21.0215 42.6191C21.2721 42.6191 21.4902 42.6566 21.6758 42.7314C21.8646 42.8063 22.0241 42.9137 22.1543 43.0537C22.2845 43.1937 22.3887 43.363 22.4668 43.5615C22.5449 43.7601 22.6003 43.9847 22.6328 44.2354V46.4863C22.6035 46.7337 22.5498 46.9567 22.4717 47.1553C22.3936 47.3538 22.2894 47.5247 22.1592 47.668C22.029 47.8079 21.8678 47.9154 21.6758 47.9902C21.487 48.0651 21.2656 48.1025 21.0117 48.1025C20.6992 48.1025 20.4242 48.0407 20.1865 47.917C19.9489 47.79 19.7487 47.6126 19.5859 47.3848C19.4264 47.1569 19.3044 46.8883 19.2197 46.5791C19.1383 46.2666 19.0977 45.9248 19.0977 45.5537ZM20.0059 45.4512V45.5537C20.0059 45.8044 20.027 46.0387 20.0693 46.2568C20.1149 46.4749 20.1849 46.667 20.2793 46.833C20.377 46.999 20.5039 47.1292 20.6602 47.2236C20.8164 47.3148 21.0085 47.3604 21.2363 47.3604C21.4316 47.3604 21.5928 47.3359 21.7197 47.2871C21.8467 47.2383 21.9476 47.1748 22.0225 47.0967C22.0973 47.0186 22.1543 46.9372 22.1934 46.8525V43.8789C22.1608 43.791 22.1071 43.708 22.0322 43.6299C21.9606 43.5485 21.8613 43.4834 21.7344 43.4346C21.6074 43.3857 21.4447 43.3613 21.2461 43.3613C21.0182 43.3613 20.8245 43.4167 20.665 43.5273C20.5055 43.638 20.377 43.7894 20.2793 43.9814C20.1849 44.1735 20.1149 44.3965 20.0693 44.6504C20.027 44.901 20.0059 45.168 20.0059 45.4512ZM21.7441 50.0312V40.5H22.6523V50.0312H21.7441ZM27.5303 46.5693L29.9668 42.7168H30.875V48H29.9668V44.1475L27.5303 48H26.6318V42.7168H27.5303V46.5693ZM35.8555 42.7168V43.4639H33.3018V42.7168H35.8555ZM36.6514 42.7168V48H35.748V42.7168H36.6514ZM33.082 42.7168H33.9902L33.8535 45.2656C33.8307 45.6595 33.7933 46.0078 33.7412 46.3105C33.6924 46.61 33.624 46.8672 33.5361 47.082C33.4515 47.2969 33.3441 47.4727 33.2139 47.6094C33.0869 47.7428 32.9339 47.8421 32.7549 47.9072C32.5758 47.9691 32.3691 48 32.1348 48H31.8516V47.2041L32.0469 47.1895C32.1868 47.1797 32.3057 47.1471 32.4033 47.0918C32.5042 47.0365 32.5889 46.9551 32.6572 46.8477C32.7256 46.737 32.7809 46.5954 32.8232 46.4229C32.8688 46.2503 32.903 46.0452 32.9258 45.8076C32.9518 45.57 32.9714 45.2933 32.9844 44.9775L33.082 42.7168ZM38.8486 44.5332H40.4355C40.862 44.5332 41.2217 44.6081 41.5146 44.7578C41.8076 44.9043 42.029 45.1077 42.1787 45.3682C42.3317 45.6253 42.4082 45.9183 42.4082 46.2471C42.4082 46.4912 42.3659 46.7207 42.2812 46.9355C42.1966 47.1471 42.0697 47.3327 41.9004 47.4922C41.7344 47.6517 41.5277 47.777 41.2803 47.8682C41.0361 47.9561 40.7546 48 40.4355 48H38.1895V42.7168H39.0928V47.2578H40.4355C40.696 47.2578 40.9043 47.2106 41.0605 47.1162C41.2168 47.0218 41.3291 46.8997 41.3975 46.75C41.4658 46.6003 41.5 46.444 41.5 46.2812C41.5 46.1217 41.4658 45.9655 41.3975 45.8125C41.3291 45.6595 41.2168 45.5326 41.0605 45.4316C40.9043 45.3275 40.696 45.2754 40.4355 45.2754H38.8486V44.5332Z" fill="#896DAD"/>
</svg>
