<svg width="278" height="120" viewBox="0 0 278 120" fill="none" xmlns="http://www.w3.org/2000/svg">
<path d="M160.865 14.57C149.355 10.33 147.245 18.48 147.035 20.24H147.015V20.47C147.005 20.61 146.995 20.7 146.995 20.7H147.015C148.145 25.41 148.975 27.57 159.845 26.94C170.485 26.32 170.815 23.01 170.815 23.01C170.815 23.01 171.855 18.62 160.865 14.57ZM153.475 17.29C153.475 17.29 154.955 15.18 157.265 18.05C157.255 18.05 155.165 20.11 153.475 17.29ZM133.885 104.79C132.795 105.3 130.155 106.45 126.145 107.78C119.105 110.11 127.725 110.1 127.725 110.1C127.725 110.1 130.265 109.9 133.955 108.76L133.885 104.79ZM145.275 39L145.115 48.23C149.805 48.62 153.725 49.97 154.825 53.23C157.785 62 142.295 62.9 129.735 67.07C116.655 71.41 118.085 87.76 133.635 90.72L133.505 83.29C133.345 83.24 133.185 83.18 133.035 83.13C131.435 82.5 129.955 81.37 129.525 80.26C129.105 77.91 131.105 74.52 137.685 73.02C149.635 70.28 159.725 68.51 162.725 62.74C170.335 48.09 156.865 39.2 145.275 39Z" fill="#CCB5E9"/>
<path d="M149.065 15.75C137.045 16.49 114.955 19.33 111.035 30.93C106.025 45.78 120.455 50.24 127.525 49.35C129.075 49.16 130.825 49.04 132.875 48.66L132.725 40.17C121.495 40.61 117.755 37.2 121.975 32.52C127.325 26.59 140.415 25.16 148.715 24.87M145.455 85.06C145.105 85.03 144.785 85 144.455 84.97L144.335 91.58C147.945 92.39 146.645 94.38 144.335 97.32C144.305 97.36 144.265 97.4 144.235 97.44L144.115 103.95C144.975 103.38 145.835 102.77 146.695 102.09C149.665 99.73 150.345 98.74 152.155 96.53C154.945 92.3 154.825 85.83 145.455 85.06Z" fill="#CCB5E9"/>
<path d="M134.295 28.52L135.075 63.19C137.695 62.51 140.945 61.63 142.955 61.08L143.725 27.04C141.425 27.26 137.755 27.7 134.295 28.52ZM139.995 74.61C139.995 74.61 136.915 75.23 135.365 75.86L136.265 115.73C136.265 117.86 137.495 119.57 138.995 119.57C140.495 119.57 141.725 118.17 141.725 115.73L142.665 73.98L139.995 74.61ZM138.845 0C135.915 0 133.975 2.4 133.975 5.34V11.05L134.085 15.86C135.775 15.49 138.965 14.91 144.095 14.37L144.165 11.06V5.35C144.175 2.4 141.775 0 138.845 0Z" fill="#CCB5E9"/>
<path d="M1.20312 48.5625C1.34896 48.5625 1.60417 48.5677 1.96875 48.5781C2.34375 48.5781 2.75521 48.5833 3.20312 48.5938C3.65104 48.5938 4.10417 48.5938 4.5625 48.5938C5.02083 48.5938 5.41146 48.5938 5.73438 48.5938C6.01562 48.5938 6.34375 48.5938 6.71875 48.5938C7.10417 48.5938 7.50521 48.5938 7.92188 48.5938C8.34896 48.5833 8.77604 48.5781 9.20312 48.5781C9.63021 48.5677 10.0417 48.5625 10.4375 48.5625L12.8125 55.7188C13.1042 56.6146 13.3906 57.4896 13.6719 58.3438C13.9635 59.1979 14.2188 59.9635 14.4375 60.6406C14.6562 61.3073 14.8333 61.849 14.9688 62.2656C15.1146 62.6719 15.1875 62.875 15.1875 62.875C15.2812 62.5208 15.4479 61.9792 15.6875 61.25C15.9271 60.5104 16.2031 59.6771 16.5156 58.75C16.8385 57.8125 17.1771 56.8281 17.5312 55.7969C17.8854 54.7656 18.224 53.7812 18.5469 52.8438C18.8698 51.8958 19.1562 51.0417 19.4062 50.2812C19.6667 49.5208 19.8542 48.9479 19.9688 48.5625C20.3438 48.5625 20.7604 48.5677 21.2188 48.5781C21.6875 48.5781 22.1562 48.5833 22.625 48.5938C23.1042 48.5938 23.5625 48.5938 24 48.5938C24.4375 48.5938 24.8125 48.5938 25.125 48.5938C25.375 48.5938 25.7031 48.5938 26.1094 48.5938C26.526 48.5938 26.9427 48.5938 27.3594 48.5938C27.776 48.5833 28.151 48.5781 28.4844 48.5781C28.8177 48.5677 29.0417 48.5625 29.1562 48.5625V51.3438H28.3594C28.0365 51.3438 27.7812 51.3698 27.5938 51.4219C27.4167 51.4635 27.2812 51.5312 27.1875 51.625C27.1042 51.7083 27.0521 51.8177 27.0312 51.9531C27.0104 52.0885 27 52.2448 27 52.4219V58.6406C27 60.4427 27.0052 62.4896 27.0156 64.7812C27.0156 65.0625 27.0312 65.2969 27.0625 65.4844C27.0938 65.6719 27.1562 65.8229 27.25 65.9375C27.3542 66.0417 27.5 66.1146 27.6875 66.1562C27.875 66.1979 28.125 66.2188 28.4375 66.2188H29.2031V69C28.8073 69 28.4219 69 28.0469 69C27.6719 68.9896 27.2812 68.9844 26.875 68.9844C26.4792 68.9844 26.0573 68.9844 25.6094 68.9844C25.1719 68.974 24.6979 68.9688 24.1875 68.9688C23.7396 68.9688 23.3385 68.974 22.9844 68.9844C22.6406 68.9844 22.3125 68.9844 22 68.9844C21.6979 68.9844 21.401 68.9896 21.1094 69C20.8281 69 20.5312 69 20.2188 69V66.2188H20.8594C21.2135 66.2188 21.4896 66.1771 21.6875 66.0938C21.8958 66 22.0521 65.8698 22.1562 65.7031C22.2708 65.526 22.3438 65.3125 22.375 65.0625C22.4062 64.8125 22.4219 64.5312 22.4219 64.2188V51.0469L21.5312 53.5L16 69H13.125C13.0312 68.75 12.8906 68.3646 12.7031 67.8438C12.5156 67.3229 12.2969 66.7188 12.0469 66.0312C11.8073 65.3333 11.5469 64.5781 11.2656 63.7656C10.9844 62.9427 10.6979 62.1146 10.4062 61.2812C10.1146 60.4375 9.82292 59.6094 9.53125 58.7969C9.25 57.9844 8.98438 57.2344 8.73438 56.5469C8.49479 55.849 8.28125 55.2396 8.09375 54.7188C7.91667 54.1875 7.78125 53.7969 7.6875 53.5469L7.25 52.3281C7.19792 52.1823 7.14062 52.0365 7.07812 51.8906C7.02604 51.7344 6.97917 51.599 6.9375 51.4844C6.88542 51.349 6.83854 51.2188 6.79688 51.0938V64.8281C6.79688 65.1406 6.8125 65.3906 6.84375 65.5781C6.88542 65.7552 6.95312 65.8906 7.04688 65.9844C7.15104 66.0781 7.29167 66.1406 7.46875 66.1719C7.65625 66.2031 7.90104 66.2188 8.20312 66.2188H8.95312V69C8.65104 69 8.35938 69 8.07812 69C7.79688 68.9896 7.50521 68.9844 7.20312 68.9844C6.90104 68.9844 6.57812 68.9844 6.23438 68.9844C5.90104 68.974 5.53125 68.9688 5.125 68.9688C4.6875 68.9688 4.29167 68.974 3.9375 68.9844C3.58333 68.9844 3.25 68.9844 2.9375 68.9844C2.625 68.9844 2.31771 68.9896 2.01562 69C1.72396 69 1.42188 69 1.10938 69V66.2188H1.875C2.25 66.2188 2.53646 66.1823 2.73438 66.1094C2.93229 66.026 3.07292 65.9115 3.15625 65.7656C3.23958 65.6198 3.28646 65.4427 3.29688 65.2344C3.31771 65.026 3.33333 64.7865 3.34375 64.5156L3.35938 52.7656C3.35938 52.5156 3.33854 52.3021 3.29688 52.125C3.26562 51.9479 3.19792 51.8021 3.09375 51.6875C3 51.5625 2.85938 51.474 2.67188 51.4219C2.48438 51.3698 2.23958 51.3438 1.9375 51.3438H1.20312V48.5625ZM49.2344 48.5625V54.25H46.1875V53.6094C46.1875 53.1094 46.1354 52.724 46.0312 52.4531C45.9271 52.1823 45.7812 51.9896 45.5938 51.875C45.4062 51.75 45.1771 51.6771 44.9062 51.6562C44.6354 51.6354 44.3333 51.625 44 51.625H38.7656V57.2969H41.8438C42.0729 57.2969 42.2656 57.2865 42.4219 57.2656C42.5885 57.2344 42.7292 57.1719 42.8438 57.0781C42.9583 56.9844 43.0521 56.8385 43.125 56.6406C43.2083 56.4427 43.276 56.1719 43.3281 55.8281H44.6562V61.3594H43.3125C43.25 61.026 43.1823 60.7604 43.1094 60.5625C43.0365 60.3646 42.9427 60.2188 42.8281 60.125C42.7135 60.0208 42.5781 59.9583 42.4219 59.9375C42.2656 59.9062 42.0729 59.8906 41.8438 59.8906H38.7656V65.9688H44.2188C44.6042 65.9688 44.9271 65.9427 45.1875 65.8906C45.4479 65.8385 45.6562 65.724 45.8125 65.5469C45.9792 65.3698 46.099 65.1198 46.1719 64.7969C46.2448 64.4635 46.2812 64.0208 46.2812 63.4688V62.9688H49.2969V69H31.375V66.2188H32.5312C32.8021 66.2188 33.0104 66.1719 33.1562 66.0781C33.3125 65.9844 33.4271 65.8542 33.5 65.6875C33.5833 65.5208 33.6302 65.3333 33.6406 65.125C33.6615 64.9167 33.6719 64.6927 33.6719 64.4531V53.2031C33.6719 52.974 33.6667 52.7448 33.6562 52.5156C33.6458 52.2865 33.6042 52.0833 33.5312 51.9062C33.4583 51.7292 33.3438 51.5885 33.1875 51.4844C33.0417 51.3698 32.8229 51.3125 32.5312 51.3125H31.4375V48.5625H49.2344ZM60.6406 48.5625C65.0781 48.5625 68.3854 49.4062 70.5625 51.0938C72.7396 52.7708 73.8281 55.2969 73.8281 58.6719C73.8281 60.6198 73.5208 62.2552 72.9062 63.5781C72.3021 64.8906 71.4375 65.9531 70.3125 66.7656C69.1979 67.5677 67.849 68.1406 66.2656 68.4844C64.6927 68.8281 62.9323 69 60.9844 69H51.8906V66.2188H52.6562C52.9792 66.2188 53.2344 66.1771 53.4219 66.0938C53.6094 66 53.75 65.8802 53.8438 65.7344C53.9375 65.5781 53.9948 65.3958 54.0156 65.1875C54.0469 64.9792 54.0625 64.75 54.0625 64.5C54.0625 64.4688 54.0625 64.2812 54.0625 63.9375C54.0625 63.5833 54.0573 63.1302 54.0469 62.5781C54.0469 62.026 54.0469 61.401 54.0469 60.7031C54.0469 60.0052 54.0469 59.2969 54.0469 58.5781V52.8281C54.0469 52.6094 54.026 52.4115 53.9844 52.2344C53.9531 52.0573 53.8854 51.901 53.7812 51.7656C53.6875 51.6302 53.5469 51.526 53.3594 51.4531C53.1823 51.3698 52.9479 51.3281 52.6562 51.3281H51.8906V48.5625H60.6406ZM59.1719 65.9688H61.4219C62.5677 65.9688 63.5677 65.8281 64.4219 65.5469C65.2865 65.2656 66 64.8281 66.5625 64.2344C67.1354 63.6302 67.5625 62.8646 67.8438 61.9375C68.1354 61.0104 68.2812 59.901 68.2812 58.6094C68.2812 56.1719 67.7135 54.3958 66.5781 53.2812C65.4531 52.1562 63.7292 51.5938 61.4062 51.5938H59.1719V65.9688ZM76.7969 48.5625C77.2656 48.5729 77.6927 48.5833 78.0781 48.5938C78.4635 48.5938 78.8229 48.5938 79.1562 48.5938C79.4896 48.5938 79.8073 48.5938 80.1094 48.5938C80.4219 48.5938 80.7292 48.5938 81.0312 48.5938C81.6562 48.5938 82.2083 48.5938 82.6875 48.5938C83.1771 48.5938 83.625 48.5938 84.0312 48.5938C84.4479 48.5938 84.8438 48.5938 85.2188 48.5938C85.6042 48.5833 86.0052 48.5729 86.4219 48.5625V51.3438H85.7656C85.3906 51.3438 85.0938 51.3802 84.875 51.4531C84.6667 51.5156 84.5052 51.6146 84.3906 51.75C84.2865 51.875 84.2188 52.0312 84.1875 52.2188C84.1667 52.3958 84.1562 52.599 84.1562 52.8281V64.7969C84.1562 65.0781 84.1667 65.3125 84.1875 65.5C84.2083 65.6771 84.2708 65.8229 84.375 65.9375C84.4792 66.0417 84.6354 66.1146 84.8438 66.1562C85.0625 66.1979 85.3698 66.2188 85.7656 66.2188H86.4219V69C86.0365 69 85.6615 69 85.2969 69C84.9323 68.9896 84.5573 68.9844 84.1719 68.9844C83.7969 68.9844 83.3906 68.9844 82.9531 68.9844C82.526 68.974 82.0573 68.9688 81.5469 68.9688C80.5885 68.9688 79.7396 68.974 79 68.9844C78.2708 68.9948 77.5365 69 76.7969 69V66.2188H77.4219C77.8281 66.2188 78.1406 66.1823 78.3594 66.1094C78.5781 66.0365 78.7396 65.9271 78.8438 65.7812C78.9479 65.6354 79.0052 65.4531 79.0156 65.2344C79.0365 65.0156 79.0469 64.7604 79.0469 64.4688V53.1406C79.0469 52.8385 79.0365 52.5781 79.0156 52.3594C78.9948 52.1302 78.9323 51.9427 78.8281 51.7969C78.724 51.6406 78.5625 51.526 78.3438 51.4531C78.125 51.3802 77.8177 51.3438 77.4219 51.3438H76.7969V48.5625ZM100.578 66.375C101.37 66.375 102.062 66.2917 102.656 66.125C103.26 65.9583 103.766 65.6875 104.172 65.3125C104.578 64.9375 104.891 64.4479 105.109 63.8438C105.339 63.2396 105.474 62.5 105.516 61.625L108.703 62.3125L108.469 67.0625C107.24 67.8854 105.932 68.4844 104.547 68.8594C103.161 69.224 101.661 69.4062 100.047 69.4062C98.151 69.4062 96.5208 69.1302 95.1562 68.5781C93.7917 68.026 92.6719 67.2708 91.7969 66.3125C90.9219 65.3542 90.276 64.2292 89.8594 62.9375C89.4427 61.6458 89.2344 60.2604 89.2344 58.7812C89.2344 57.2292 89.4688 55.8021 89.9375 54.5C90.4167 53.1979 91.099 52.0781 91.9844 51.1406C92.8698 50.2031 93.9479 49.474 95.2188 48.9531C96.4896 48.4323 97.9271 48.1719 99.5312 48.1719C100.01 48.1719 100.505 48.2135 101.016 48.2969C101.526 48.3802 102.016 48.5 102.484 48.6562C102.953 48.8125 103.385 49 103.781 49.2188C104.188 49.4375 104.531 49.6823 104.812 49.9531L104.891 48.6094H108.359V55.0156L105.156 55C105.073 53.8125 104.646 52.8854 103.875 52.2188C103.104 51.5417 101.99 51.2031 100.531 51.2031C99.6458 51.2031 98.8542 51.3646 98.1562 51.6875C97.4583 52.0104 96.8646 52.4896 96.375 53.125C95.8958 53.75 95.526 54.5365 95.2656 55.4844C95.0052 56.4219 94.875 57.5052 94.875 58.7344C94.875 59.9427 95.0052 61.0208 95.2656 61.9688C95.526 62.9167 95.901 63.7188 96.3906 64.375C96.8802 65.0208 97.474 65.5156 98.1719 65.8594C98.8802 66.2031 99.6823 66.375 100.578 66.375ZM123.859 48.5625C124.766 51.0208 125.594 53.2604 126.344 55.2812C126.667 56.1458 126.984 57.0052 127.297 57.8594C127.609 58.7031 127.896 59.4844 128.156 60.2031C128.427 60.9115 128.656 61.5208 128.844 62.0312C129.031 62.5312 129.156 62.8646 129.219 63.0312C129.479 63.75 129.682 64.3177 129.828 64.7344C129.974 65.151 130.135 65.4688 130.312 65.6875C130.5 65.9062 130.734 66.0521 131.016 66.125C131.297 66.1875 131.703 66.224 132.234 66.2344V69C131.62 69 131.021 68.9948 130.438 68.9844C129.865 68.974 129.198 68.9688 128.438 68.9688C127.542 68.9688 126.661 68.974 125.797 68.9844C124.943 68.9844 124.016 68.9896 123.016 69V66.4219C123.057 66.4219 123.115 66.4219 123.188 66.4219C123.271 66.4219 123.354 66.4219 123.438 66.4219C123.521 66.4219 123.599 66.4219 123.672 66.4219C123.745 66.4115 123.797 66.4062 123.828 66.4062C124.328 66.3854 124.672 66.3333 124.859 66.25C125.047 66.1667 125.141 66.0208 125.141 65.8125C125.141 65.6875 125.115 65.5365 125.062 65.3594C125.01 65.1719 124.943 64.9583 124.859 64.7188L123.859 61.7656H116.656C116.625 61.8802 116.552 62.1042 116.438 62.4375C116.323 62.7604 116.198 63.1094 116.062 63.4844C115.938 63.8594 115.823 64.2083 115.719 64.5312C115.615 64.8542 115.552 65.0573 115.531 65.1406C115.479 65.2865 115.438 65.4219 115.406 65.5469C115.385 65.6615 115.375 65.7552 115.375 65.8281C115.375 66.0573 115.443 66.2135 115.578 66.2969C115.724 66.3698 115.964 66.4115 116.297 66.4219C116.328 66.4219 116.396 66.4271 116.5 66.4375C116.604 66.4375 116.719 66.4375 116.844 66.4375C116.969 66.4375 117.083 66.4375 117.188 66.4375C117.302 66.4375 117.38 66.4375 117.422 66.4375V69C116.786 69 116.146 68.9948 115.5 68.9844C114.854 68.974 114.156 68.9688 113.406 68.9688C113.042 68.9688 112.698 68.9688 112.375 68.9688C112.062 68.9688 111.755 68.974 111.453 68.9844C111.151 68.9844 110.844 68.9896 110.531 69C110.219 69 109.885 69 109.531 69V66.2188C109.906 66.1771 110.208 66.1406 110.438 66.1094C110.677 66.0781 110.875 66.0208 111.031 65.9375C111.188 65.8438 111.323 65.7135 111.438 65.5469C111.552 65.3698 111.672 65.125 111.797 64.8125C111.88 64.6146 112.01 64.2917 112.188 63.8438C112.365 63.3958 112.568 62.8698 112.797 62.2656C113.036 61.6615 113.297 61.0052 113.578 60.2969C113.859 59.5781 114.146 58.849 114.438 58.1094C114.729 57.3698 115.016 56.6406 115.297 55.9219C115.578 55.2031 115.839 54.5417 116.078 53.9375C116.318 53.3229 116.526 52.7917 116.703 52.3438C116.88 51.8854 117.01 51.5521 117.094 51.3438L117.812 48.5625H123.859ZM117.375 59.7344H123.141L120.344 51.5156L120.312 51.5L117.375 59.7344ZM133.219 48.5625C133.292 48.5625 133.474 48.5677 133.766 48.5781C134.068 48.5781 134.406 48.5833 134.781 48.5938C135.156 48.5938 135.531 48.599 135.906 48.6094C136.292 48.6094 136.609 48.6094 136.859 48.6094C137.359 48.6094 137.849 48.6094 138.328 48.6094C138.807 48.6094 139.297 48.6094 139.797 48.6094C140.297 48.599 140.818 48.5938 141.359 48.5938C141.901 48.5833 142.484 48.5729 143.109 48.5625V51.3438H142.094C141.74 51.3438 141.464 51.3958 141.266 51.5C141.068 51.6042 140.917 51.7396 140.812 51.9062C140.719 52.0729 140.661 52.2656 140.641 52.4844C140.62 52.6927 140.609 52.9062 140.609 53.125V59.5938C140.609 61.4583 140.615 63.5677 140.625 65.9219H145.672C146.068 65.9219 146.375 65.8385 146.594 65.6719C146.823 65.5052 146.99 65.2604 147.094 64.9375C147.208 64.6042 147.281 64.1979 147.312 63.7188C147.344 63.2396 147.359 62.6875 147.359 62.0625H150.219V69H133.219V66.2188H133.953C134.328 66.2188 134.62 66.1719 134.828 66.0781C135.047 65.9844 135.203 65.8594 135.297 65.7031C135.401 65.5469 135.464 65.3594 135.484 65.1406C135.505 64.9219 135.516 64.6875 135.516 64.4375V53.5469V52.9375C135.516 52.7292 135.5 52.5312 135.469 52.3438C135.438 52.1458 135.37 51.974 135.266 51.8281C135.161 51.6823 135.005 51.5677 134.797 51.4844C134.589 51.3906 134.307 51.3438 133.953 51.3438H133.219V48.5625ZM158.688 54.0625C158.5 53.4271 158.354 52.9271 158.25 52.5625C158.146 52.1979 158.021 51.9271 157.875 51.75C157.74 51.5729 157.547 51.4635 157.297 51.4219C157.057 51.3698 156.698 51.3438 156.219 51.3438V48.5625C156.885 48.5729 157.516 48.5781 158.109 48.5781C158.359 48.5781 158.615 48.5833 158.875 48.5938C159.146 48.5938 159.401 48.5938 159.641 48.5938C159.88 48.5938 160.099 48.5938 160.297 48.5938C160.505 48.5938 160.677 48.5938 160.812 48.5938C161.406 48.5938 162.042 48.5938 162.719 48.5938C163.396 48.5833 164.188 48.5729 165.094 48.5625V51.3438C164.302 51.3646 163.724 51.4167 163.359 51.5C163.172 51.6562 163.078 51.8958 163.078 52.2188C163.078 52.3542 163.089 52.5052 163.109 52.6719C163.13 52.8385 163.167 53.0156 163.219 53.2031C163.312 53.5365 163.438 54.0208 163.594 54.6562C163.76 55.2917 163.938 56 164.125 56.7812C164.323 57.5625 164.526 58.3854 164.734 59.25C164.953 60.1042 165.156 60.9219 165.344 61.7031C165.542 62.4844 165.719 63.1927 165.875 63.8281C166.042 64.4635 166.172 64.9479 166.266 65.2812L170.359 49.7812H174.516L178.703 65.2969L181.766 52.9375C181.807 52.7604 181.844 52.599 181.875 52.4531C181.917 52.3073 181.948 52.1667 181.969 52.0312C181.917 51.8229 181.781 51.6667 181.562 51.5625C181.344 51.4583 180.995 51.3958 180.516 51.375C180.464 51.3646 180.359 51.3594 180.203 51.3594C180.057 51.3594 179.958 51.3542 179.906 51.3438V48.5625C180.729 48.5729 181.448 48.5833 182.062 48.5938C182.677 48.5938 183.25 48.5938 183.781 48.5938C184.021 48.5938 184.328 48.5938 184.703 48.5938C185.089 48.5938 185.474 48.5938 185.859 48.5938C186.245 48.5833 186.599 48.5781 186.922 48.5781C187.255 48.5677 187.49 48.5625 187.625 48.5625V51.3438C187.25 51.3542 186.932 51.3906 186.672 51.4531C186.422 51.5052 186.203 51.6146 186.016 51.7812C185.828 51.9479 185.656 52.1927 185.5 52.5156C185.354 52.8385 185.198 53.2708 185.031 53.8125C184.969 53.9792 184.875 54.2656 184.75 54.6719C184.635 55.0781 184.49 55.5729 184.312 56.1562C184.146 56.7292 183.958 57.3698 183.75 58.0781C183.552 58.7865 183.339 59.5312 183.109 60.3125C182.891 61.0938 182.661 61.8906 182.422 62.7031C182.193 63.5052 181.964 64.2969 181.734 65.0781C181.516 65.8594 181.302 66.6042 181.094 67.3125C180.885 68.0208 180.693 68.6615 180.516 69.2344H175.703L171.953 54.375L168.172 69.2344H163.219L158.688 54.0625ZM198.906 48.1719C200.625 48.1719 202.146 48.4427 203.469 48.9844C204.802 49.526 205.922 50.276 206.828 51.2344C207.745 52.1823 208.438 53.3021 208.906 54.5938C209.385 55.8854 209.625 57.276 209.625 58.7656C209.625 60.2552 209.385 61.6458 208.906 62.9375C208.438 64.2292 207.75 65.3542 206.844 66.3125C205.938 67.2708 204.823 68.026 203.5 68.5781C202.177 69.1302 200.661 69.4062 198.953 69.4062C197.224 69.4062 195.688 69.1354 194.344 68.5938C193 68.0521 191.87 67.3073 190.953 66.3594C190.036 65.401 189.339 64.276 188.859 62.9844C188.38 61.6823 188.141 60.276 188.141 58.7656C188.141 57.276 188.375 55.8906 188.844 54.6094C189.312 53.3177 190 52.1979 190.906 51.25C191.823 50.2917 192.948 49.5417 194.281 49C195.625 48.4479 197.167 48.1719 198.906 48.1719ZM198.891 51.2031C197.995 51.2031 197.224 51.375 196.578 51.7188C195.943 52.0625 195.417 52.5625 195 53.2188C194.594 53.8646 194.292 54.6562 194.094 55.5938C193.906 56.5208 193.812 57.5677 193.812 58.7344C193.812 59.9531 193.917 61.0365 194.125 61.9844C194.333 62.9323 194.646 63.7344 195.062 64.3906C195.479 65.0365 196.005 65.5312 196.641 65.875C197.276 66.2083 198.026 66.375 198.891 66.375C199.766 66.375 200.521 66.2031 201.156 65.8594C201.802 65.5052 202.328 65 202.734 64.3438C203.151 63.6875 203.458 62.8906 203.656 61.9531C203.865 61.0052 203.969 59.9375 203.969 58.75C203.969 56.3125 203.552 54.4479 202.719 53.1562C201.885 51.8542 200.609 51.2031 198.891 51.2031ZM229.984 63.3438C230.078 63.8646 230.167 64.3177 230.25 64.7031C230.344 65.0781 230.448 65.3906 230.562 65.6406C230.688 65.8906 230.833 66.0781 231 66.2031C231.177 66.3177 231.391 66.375 231.641 66.375C232.005 66.375 232.281 66.2708 232.469 66.0625C232.656 65.8542 232.75 65.5 232.75 65L234.562 64.7812C234.562 64.7917 234.562 64.8229 234.562 64.875C234.562 64.9167 234.557 64.9688 234.547 65.0312C234.547 65.0833 234.547 65.1354 234.547 65.1875C234.547 65.2292 234.547 65.2552 234.547 65.2656C234.526 65.9948 234.411 66.6198 234.203 67.1406C234.005 67.6615 233.719 68.0938 233.344 68.4375C232.969 68.7708 232.516 69.0156 231.984 69.1719C231.464 69.3281 230.87 69.4062 230.203 69.4062C229.401 69.4062 228.703 69.2917 228.109 69.0625C227.516 68.8333 227.005 68.4896 226.578 68.0312C226.151 67.5729 225.797 67 225.516 66.3125C225.234 65.6146 225.005 64.7969 224.828 63.8594C224.672 63.026 224.484 62.3333 224.266 61.7812C224.057 61.2292 223.823 60.7708 223.562 60.4062C223.281 60.1771 222.943 60.026 222.547 59.9531C222.151 59.8698 221.661 59.8281 221.078 59.8281H219.719L219.703 65.0938C219.703 65.3333 219.724 65.5312 219.766 65.6875C219.818 65.8333 219.901 65.9479 220.016 66.0312C220.13 66.1042 220.286 66.1562 220.484 66.1875C220.682 66.2083 220.938 66.2188 221.25 66.2188H221.938V69C221.552 69 221.167 69 220.781 69C220.406 69 220.021 69 219.625 69C219.229 68.9896 218.807 68.9844 218.359 68.9844C217.922 68.974 217.448 68.9688 216.938 68.9688C216.438 68.9688 215.979 68.974 215.562 68.9844C215.156 68.9844 214.771 68.9844 214.406 68.9844C214.042 68.9844 213.688 68.9896 213.344 69C213.01 69 212.667 69 212.312 69V66.2188H212.812C213.26 66.2188 213.604 66.1875 213.844 66.125C214.094 66.0521 214.271 65.9479 214.375 65.8125C214.49 65.6771 214.552 65.5104 214.562 65.3125C214.583 65.1146 214.594 64.8854 214.594 64.625V52.9531C214.594 52.6615 214.578 52.4167 214.547 52.2188C214.526 52.0104 214.453 51.8438 214.328 51.7188C214.214 51.5833 214.031 51.4896 213.781 51.4375C213.531 51.375 213.182 51.3438 212.734 51.3438H212.312V48.5625H222.297C223.057 48.5625 223.807 48.5885 224.547 48.6406C225.297 48.6927 226.005 48.7969 226.672 48.9531C227.349 49.099 227.974 49.3021 228.547 49.5625C229.13 49.8229 229.63 50.1615 230.047 50.5781C230.474 50.9948 230.807 51.5 231.047 52.0938C231.286 52.6875 231.406 53.3854 231.406 54.1875C231.406 54.75 231.312 55.2865 231.125 55.7969C230.938 56.2969 230.661 56.75 230.297 57.1562C229.943 57.5625 229.505 57.9115 228.984 58.2031C228.474 58.4948 227.891 58.7135 227.234 58.8594C227.547 59.0052 227.844 59.1875 228.125 59.4062C228.417 59.625 228.682 59.9062 228.922 60.25C229.161 60.5938 229.37 61.0156 229.547 61.5156C229.734 62.0156 229.88 62.625 229.984 63.3438ZM219.703 57.5625H222.125C222.823 57.5625 223.427 57.5156 223.938 57.4219C224.458 57.3177 224.885 57.1458 225.219 56.9062C225.552 56.6667 225.802 56.3542 225.969 55.9688C226.135 55.5833 226.219 55.099 226.219 54.5156C226.219 53.901 226.12 53.3958 225.922 53C225.724 52.5938 225.432 52.276 225.047 52.0469C224.672 51.8073 224.198 51.6458 223.625 51.5625C223.062 51.4688 222.406 51.4219 221.656 51.4219H219.703V57.5625ZM235.281 48.5625C235.354 48.5625 235.536 48.5677 235.828 48.5781C236.13 48.5781 236.469 48.5833 236.844 48.5938C237.219 48.5938 237.594 48.599 237.969 48.6094C238.354 48.6094 238.672 48.6094 238.922 48.6094C239.422 48.6094 239.911 48.6094 240.391 48.6094C240.87 48.6094 241.359 48.6094 241.859 48.6094C242.359 48.599 242.88 48.5938 243.422 48.5938C243.964 48.5833 244.547 48.5729 245.172 48.5625V51.3438H244.156C243.802 51.3438 243.526 51.3958 243.328 51.5C243.13 51.6042 242.979 51.7396 242.875 51.9062C242.781 52.0729 242.724 52.2656 242.703 52.4844C242.682 52.6927 242.672 52.9062 242.672 53.125V59.5938C242.672 61.4583 242.677 63.5677 242.688 65.9219H247.734C248.13 65.9219 248.438 65.8385 248.656 65.6719C248.885 65.5052 249.052 65.2604 249.156 64.9375C249.271 64.6042 249.344 64.1979 249.375 63.7188C249.406 63.2396 249.422 62.6875 249.422 62.0625H252.281V69H235.281V66.2188H236.016C236.391 66.2188 236.682 66.1719 236.891 66.0781C237.109 65.9844 237.266 65.8594 237.359 65.7031C237.464 65.5469 237.526 65.3594 237.547 65.1406C237.568 64.9219 237.578 64.6875 237.578 64.4375V53.5469V52.9375C237.578 52.7292 237.562 52.5312 237.531 52.3438C237.5 52.1458 237.432 51.974 237.328 51.8281C237.224 51.6823 237.068 51.5677 236.859 51.4844C236.651 51.3906 236.37 51.3438 236.016 51.3438H235.281V48.5625ZM262.609 48.5625C267.047 48.5625 270.354 49.4062 272.531 51.0938C274.708 52.7708 275.797 55.2969 275.797 58.6719C275.797 60.6198 275.49 62.2552 274.875 63.5781C274.271 64.8906 273.406 65.9531 272.281 66.7656C271.167 67.5677 269.818 68.1406 268.234 68.4844C266.661 68.8281 264.901 69 262.953 69H253.859V66.2188H254.625C254.948 66.2188 255.203 66.1771 255.391 66.0938C255.578 66 255.719 65.8802 255.812 65.7344C255.906 65.5781 255.964 65.3958 255.984 65.1875C256.016 64.9792 256.031 64.75 256.031 64.5C256.031 64.4688 256.031 64.2812 256.031 63.9375C256.031 63.5833 256.026 63.1302 256.016 62.5781C256.016 62.026 256.016 61.401 256.016 60.7031C256.016 60.0052 256.016 59.2969 256.016 58.5781V52.8281C256.016 52.6094 255.995 52.4115 255.953 52.2344C255.922 52.0573 255.854 51.901 255.75 51.7656C255.656 51.6302 255.516 51.526 255.328 51.4531C255.151 51.3698 254.917 51.3281 254.625 51.3281H253.859V48.5625H262.609ZM261.141 65.9688H263.391C264.536 65.9688 265.536 65.8281 266.391 65.5469C267.255 65.2656 267.969 64.8281 268.531 64.2344C269.104 63.6302 269.531 62.8646 269.812 61.9375C270.104 61.0104 270.25 59.901 270.25 58.6094C270.25 56.1719 269.682 54.3958 268.547 53.2812C267.422 52.1562 265.698 51.5938 263.375 51.5938H261.141V65.9688Z" fill="white"/>
</svg>
