<svg width="278" height="143" viewBox="0 0 278 143" fill="none" xmlns="http://www.w3.org/2000/svg">
<path d="M160.865 18.1077C149.355 13.0905 147.245 22.7344 147.035 24.817H147.015V25.0892C147.005 25.2548 146.995 25.3613 146.995 25.3613H147.015C148.145 30.9346 148.975 33.4905 159.845 32.7451C170.485 32.0114 170.815 28.0947 170.815 28.0947C170.815 28.0947 171.855 22.9001 160.865 18.1077ZM153.475 21.3263C153.475 21.3263 154.955 18.8295 157.265 22.2256C157.255 22.2256 155.165 24.6632 153.475 21.3263ZM133.885 124.865C132.795 125.468 130.155 126.829 126.145 128.403C119.105 131.16 127.725 131.148 127.725 131.148C127.725 131.148 130.265 130.911 133.955 129.562L133.885 124.865ZM145.275 47.0156L145.115 57.9374C149.805 58.3989 153.725 59.9963 154.825 63.8539C157.785 74.2314 142.295 75.2963 129.735 80.2307C116.655 85.3662 118.085 104.713 133.635 108.216L133.505 99.4237C133.345 99.3646 133.185 99.2936 133.035 99.2344C131.435 98.4889 129.955 97.1518 129.525 95.8383C129.105 93.0576 131.105 89.0462 137.685 87.2713C149.635 84.0291 159.725 81.9346 162.725 75.107C170.335 57.7718 156.865 47.2523 145.275 47.0156Z" fill="#CCB5E9"/>
<path d="M149.065 19.504C137.045 20.3797 114.955 23.7402 111.035 37.4664C106.025 55.0384 120.455 60.3159 127.525 59.2627C129.075 59.0379 130.825 58.8959 132.875 58.4463L132.725 48.4001C121.495 48.9207 117.755 44.8857 121.975 39.3479C127.325 32.3309 140.415 30.6388 148.715 30.2957M145.455 101.518C145.105 101.483 144.785 101.447 144.455 101.412L144.335 109.233C147.945 110.192 146.645 112.546 144.335 116.025C144.305 116.073 144.265 116.12 144.235 116.167L144.115 123.871C144.975 123.196 145.835 122.474 146.695 121.67C149.665 118.877 150.345 117.706 152.155 115.091C154.945 110.085 154.825 102.429 145.455 101.518Z" fill="#CCB5E9"/>
<path d="M134.295 34.6147L135.075 75.6395C137.695 74.8349 140.945 73.7936 142.955 73.1428L143.725 32.8634C141.425 33.1237 137.755 33.6444 134.295 34.6147ZM139.995 89.1527C139.995 89.1527 136.915 89.8864 135.365 90.6319L136.265 137.81C136.265 140.33 137.495 142.354 138.995 142.354C140.495 142.354 141.725 140.697 141.725 137.81L142.665 88.4073L139.995 89.1527ZM138.845 0.867126C135.915 0.867126 133.975 3.70703 133.975 7.18592V13.9425L134.085 19.6342C135.775 19.1964 138.965 18.51 144.095 17.8711L144.165 13.9544V7.19775C144.175 3.70703 141.775 0.867126 138.845 0.867126Z" fill="#CCB5E9"/>
<path d="M1.20312 46.2446C1.34896 46.2446 1.60417 46.2498 1.96875 46.2603C2.34375 46.2603 2.75521 46.2655 3.20312 46.2759C3.65104 46.2759 4.10417 46.2759 4.5625 46.2759C5.02083 46.2759 5.41146 46.2759 5.73438 46.2759C6.01562 46.2759 6.34375 46.2759 6.71875 46.2759C7.10417 46.2759 7.50521 46.2759 7.92188 46.2759C8.34896 46.2655 8.77604 46.2603 9.20312 46.2603C9.63021 46.2498 10.0417 46.2446 10.4375 46.2446L12.8125 53.4009C13.1042 54.2967 13.3906 55.1717 13.6719 56.0259C13.9635 56.88 14.2188 57.6457 14.4375 58.3228C14.6562 58.9894 14.8333 59.5311 14.9688 59.9478C15.1146 60.354 15.1875 60.5571 15.1875 60.5571C15.2812 60.203 15.4479 59.6613 15.6875 58.9321C15.9271 58.1925 16.2031 57.3592 16.5156 56.4321C16.8385 55.4946 17.1771 54.5103 17.5312 53.479C17.8854 52.4478 18.224 51.4634 18.5469 50.5259C18.8698 49.578 19.1562 48.7238 19.4062 47.9634C19.6667 47.203 19.8542 46.63 19.9688 46.2446C20.3438 46.2446 20.7604 46.2498 21.2188 46.2603C21.6875 46.2603 22.1562 46.2655 22.625 46.2759C23.1042 46.2759 23.5625 46.2759 24 46.2759C24.4375 46.2759 24.8125 46.2759 25.125 46.2759C25.375 46.2759 25.7031 46.2759 26.1094 46.2759C26.526 46.2759 26.9427 46.2759 27.3594 46.2759C27.776 46.2655 28.151 46.2603 28.4844 46.2603C28.8177 46.2498 29.0417 46.2446 29.1562 46.2446V49.0259H28.3594C28.0365 49.0259 27.7812 49.0519 27.5938 49.104C27.4167 49.1457 27.2812 49.2134 27.1875 49.3071C27.1042 49.3905 27.0521 49.4998 27.0312 49.6353C27.0104 49.7707 27 49.9269 27 50.104V56.3228C27 58.1248 27.0052 60.1717 27.0156 62.4634C27.0156 62.7446 27.0312 62.979 27.0625 63.1665C27.0938 63.354 27.1562 63.505 27.25 63.6196C27.3542 63.7238 27.5 63.7967 27.6875 63.8384C27.875 63.88 28.125 63.9009 28.4375 63.9009H29.2031V66.6821C28.8073 66.6821 28.4219 66.6821 28.0469 66.6821C27.6719 66.6717 27.2812 66.6665 26.875 66.6665C26.4792 66.6665 26.0573 66.6665 25.6094 66.6665C25.1719 66.6561 24.6979 66.6509 24.1875 66.6509C23.7396 66.6509 23.3385 66.6561 22.9844 66.6665C22.6406 66.6665 22.3125 66.6665 22 66.6665C21.6979 66.6665 21.401 66.6717 21.1094 66.6821C20.8281 66.6821 20.5312 66.6821 20.2188 66.6821V63.9009H20.8594C21.2135 63.9009 21.4896 63.8592 21.6875 63.7759C21.8958 63.6821 22.0521 63.5519 22.1562 63.3853C22.2708 63.2082 22.3438 62.9946 22.375 62.7446C22.4062 62.4946 22.4219 62.2134 22.4219 61.9009V48.729L21.5312 51.1821L16 66.6821H13.125C13.0312 66.4321 12.8906 66.0467 12.7031 65.5259C12.5156 65.005 12.2969 64.4009 12.0469 63.7134C11.8073 63.0155 11.5469 62.2603 11.2656 61.4478C10.9844 60.6248 10.6979 59.7967 10.4062 58.9634C10.1146 58.1196 9.82292 57.2915 9.53125 56.479C9.25 55.6665 8.98438 54.9165 8.73438 54.229C8.49479 53.5311 8.28125 52.9217 8.09375 52.4009C7.91667 51.8696 7.78125 51.479 7.6875 51.229L7.25 50.0103C7.19792 49.8644 7.14062 49.7186 7.07812 49.5728C7.02604 49.4165 6.97917 49.2811 6.9375 49.1665C6.88542 49.0311 6.83854 48.9009 6.79688 48.7759V62.5103C6.79688 62.8228 6.8125 63.0728 6.84375 63.2603C6.88542 63.4373 6.95312 63.5728 7.04688 63.6665C7.15104 63.7603 7.29167 63.8228 7.46875 63.854C7.65625 63.8853 7.90104 63.9009 8.20312 63.9009H8.95312V66.6821C8.65104 66.6821 8.35938 66.6821 8.07812 66.6821C7.79688 66.6717 7.50521 66.6665 7.20312 66.6665C6.90104 66.6665 6.57812 66.6665 6.23438 66.6665C5.90104 66.6561 5.53125 66.6509 5.125 66.6509C4.6875 66.6509 4.29167 66.6561 3.9375 66.6665C3.58333 66.6665 3.25 66.6665 2.9375 66.6665C2.625 66.6665 2.31771 66.6717 2.01562 66.6821C1.72396 66.6821 1.42188 66.6821 1.10938 66.6821V63.9009H1.875C2.25 63.9009 2.53646 63.8644 2.73438 63.7915C2.93229 63.7082 3.07292 63.5936 3.15625 63.4478C3.23958 63.3019 3.28646 63.1248 3.29688 62.9165C3.31771 62.7082 3.33333 62.4686 3.34375 62.1978L3.35938 50.4478C3.35938 50.1978 3.33854 49.9842 3.29688 49.8071C3.26562 49.63 3.19792 49.4842 3.09375 49.3696C3 49.2446 2.85938 49.1561 2.67188 49.104C2.48438 49.0519 2.23958 49.0259 1.9375 49.0259H1.20312V46.2446ZM49.2344 46.2446V51.9321H46.1875V51.2915C46.1875 50.7915 46.1354 50.4061 46.0312 50.1353C45.9271 49.8644 45.7812 49.6717 45.5938 49.5571C45.4062 49.4321 45.1771 49.3592 44.9062 49.3384C44.6354 49.3175 44.3333 49.3071 44 49.3071H38.7656V54.979H41.8438C42.0729 54.979 42.2656 54.9686 42.4219 54.9478C42.5885 54.9165 42.7292 54.854 42.8438 54.7603C42.9583 54.6665 43.0521 54.5207 43.125 54.3228C43.2083 54.1248 43.276 53.854 43.3281 53.5103H44.6562V59.0415H43.3125C43.25 58.7082 43.1823 58.4425 43.1094 58.2446C43.0365 58.0467 42.9427 57.9009 42.8281 57.8071C42.7135 57.703 42.5781 57.6405 42.4219 57.6196C42.2656 57.5884 42.0729 57.5728 41.8438 57.5728H38.7656V63.6509H44.2188C44.6042 63.6509 44.9271 63.6248 45.1875 63.5728C45.4479 63.5207 45.6562 63.4061 45.8125 63.229C45.9792 63.0519 46.099 62.8019 46.1719 62.479C46.2448 62.1457 46.2812 61.703 46.2812 61.1509V60.6509H49.2969V66.6821H31.375V63.9009H32.5312C32.8021 63.9009 33.0104 63.854 33.1562 63.7603C33.3125 63.6665 33.4271 63.5363 33.5 63.3696C33.5833 63.203 33.6302 63.0155 33.6406 62.8071C33.6615 62.5988 33.6719 62.3748 33.6719 62.1353V50.8853C33.6719 50.6561 33.6667 50.4269 33.6562 50.1978C33.6458 49.9686 33.6042 49.7655 33.5312 49.5884C33.4583 49.4113 33.3438 49.2707 33.1875 49.1665C33.0417 49.0519 32.8229 48.9946 32.5312 48.9946H31.4375V46.2446H49.2344ZM60.6406 46.2446C65.0781 46.2446 68.3854 47.0884 70.5625 48.7759C72.7396 50.453 73.8281 52.979 73.8281 56.354C73.8281 58.3019 73.5208 59.9373 72.9062 61.2603C72.3021 62.5728 71.4375 63.6353 70.3125 64.4478C69.1979 65.2498 67.849 65.8228 66.2656 66.1665C64.6927 66.5103 62.9323 66.6821 60.9844 66.6821H51.8906V63.9009H52.6562C52.9792 63.9009 53.2344 63.8592 53.4219 63.7759C53.6094 63.6821 53.75 63.5623 53.8438 63.4165C53.9375 63.2603 53.9948 63.078 54.0156 62.8696C54.0469 62.6613 54.0625 62.4321 54.0625 62.1821C54.0625 62.1509 54.0625 61.9634 54.0625 61.6196C54.0625 61.2655 54.0573 60.8123 54.0469 60.2603C54.0469 59.7082 54.0469 59.0832 54.0469 58.3853C54.0469 57.6873 54.0469 56.979 54.0469 56.2603V50.5103C54.0469 50.2915 54.026 50.0936 53.9844 49.9165C53.9531 49.7394 53.8854 49.5832 53.7812 49.4478C53.6875 49.3123 53.5469 49.2082 53.3594 49.1353C53.1823 49.0519 52.9479 49.0103 52.6562 49.0103H51.8906V46.2446H60.6406ZM59.1719 63.6509H61.4219C62.5677 63.6509 63.5677 63.5103 64.4219 63.229C65.2865 62.9478 66 62.5103 66.5625 61.9165C67.1354 61.3123 67.5625 60.5467 67.8438 59.6196C68.1354 58.6925 68.2812 57.5832 68.2812 56.2915C68.2812 53.854 67.7135 52.078 66.5781 50.9634C65.4531 49.8384 63.7292 49.2759 61.4062 49.2759H59.1719V63.6509ZM76.7969 46.2446C77.2656 46.255 77.6927 46.2655 78.0781 46.2759C78.4635 46.2759 78.8229 46.2759 79.1562 46.2759C79.4896 46.2759 79.8073 46.2759 80.1094 46.2759C80.4219 46.2759 80.7292 46.2759 81.0312 46.2759C81.6562 46.2759 82.2083 46.2759 82.6875 46.2759C83.1771 46.2759 83.625 46.2759 84.0312 46.2759C84.4479 46.2759 84.8438 46.2759 85.2188 46.2759C85.6042 46.2655 86.0052 46.255 86.4219 46.2446V49.0259H85.7656C85.3906 49.0259 85.0938 49.0623 84.875 49.1353C84.6667 49.1978 84.5052 49.2967 84.3906 49.4321C84.2865 49.5571 84.2188 49.7134 84.1875 49.9009C84.1667 50.078 84.1562 50.2811 84.1562 50.5103V62.479C84.1562 62.7603 84.1667 62.9946 84.1875 63.1821C84.2083 63.3592 84.2708 63.505 84.375 63.6196C84.4792 63.7238 84.6354 63.7967 84.8438 63.8384C85.0625 63.88 85.3698 63.9009 85.7656 63.9009H86.4219V66.6821C86.0365 66.6821 85.6615 66.6821 85.2969 66.6821C84.9323 66.6717 84.5573 66.6665 84.1719 66.6665C83.7969 66.6665 83.3906 66.6665 82.9531 66.6665C82.526 66.6561 82.0573 66.6509 81.5469 66.6509C80.5885 66.6509 79.7396 66.6561 79 66.6665C78.2708 66.6769 77.5365 66.6821 76.7969 66.6821V63.9009H77.4219C77.8281 63.9009 78.1406 63.8644 78.3594 63.7915C78.5781 63.7186 78.7396 63.6092 78.8438 63.4634C78.9479 63.3175 79.0052 63.1353 79.0156 62.9165C79.0365 62.6978 79.0469 62.4425 79.0469 62.1509V50.8228C79.0469 50.5207 79.0365 50.2603 79.0156 50.0415C78.9948 49.8123 78.9323 49.6248 78.8281 49.479C78.724 49.3228 78.5625 49.2082 78.3438 49.1353C78.125 49.0623 77.8177 49.0259 77.4219 49.0259H76.7969V46.2446ZM100.578 64.0571C101.37 64.0571 102.062 63.9738 102.656 63.8071C103.26 63.6405 103.766 63.3696 104.172 62.9946C104.578 62.6196 104.891 62.13 105.109 61.5259C105.339 60.9217 105.474 60.1821 105.516 59.3071L108.703 59.9946L108.469 64.7446C107.24 65.5675 105.932 66.1665 104.547 66.5415C103.161 66.9061 101.661 67.0884 100.047 67.0884C98.151 67.0884 96.5208 66.8123 95.1562 66.2603C93.7917 65.7082 92.6719 64.953 91.7969 63.9946C90.9219 63.0363 90.276 61.9113 89.8594 60.6196C89.4427 59.328 89.2344 57.9425 89.2344 56.4634C89.2344 54.9113 89.4688 53.4842 89.9375 52.1821C90.4167 50.88 91.099 49.7603 91.9844 48.8228C92.8698 47.8853 93.9479 47.1561 95.2188 46.6353C96.4896 46.1144 97.9271 45.854 99.5312 45.854C100.01 45.854 100.505 45.8957 101.016 45.979C101.526 46.0623 102.016 46.1821 102.484 46.3384C102.953 46.4946 103.385 46.6821 103.781 46.9009C104.188 47.1196 104.531 47.3644 104.812 47.6353L104.891 46.2915H108.359V52.6978L105.156 52.6821C105.073 51.4946 104.646 50.5675 103.875 49.9009C103.104 49.2238 101.99 48.8853 100.531 48.8853C99.6458 48.8853 98.8542 49.0467 98.1562 49.3696C97.4583 49.6925 96.8646 50.1717 96.375 50.8071C95.8958 51.4321 95.526 52.2186 95.2656 53.1665C95.0052 54.104 94.875 55.1873 94.875 56.4165C94.875 57.6248 95.0052 58.703 95.2656 59.6509C95.526 60.5988 95.901 61.4009 96.3906 62.0571C96.8802 62.703 97.474 63.1978 98.1719 63.5415C98.8802 63.8853 99.6823 64.0571 100.578 64.0571ZM123.859 46.2446C124.766 48.703 125.594 50.9425 126.344 52.9634C126.667 53.828 126.984 54.6873 127.297 55.5415C127.609 56.3853 127.896 57.1665 128.156 57.8853C128.427 58.5936 128.656 59.203 128.844 59.7134C129.031 60.2134 129.156 60.5467 129.219 60.7134C129.479 61.4321 129.682 61.9998 129.828 62.4165C129.974 62.8332 130.135 63.1509 130.312 63.3696C130.5 63.5884 130.734 63.7342 131.016 63.8071C131.297 63.8696 131.703 63.9061 132.234 63.9165V66.6821C131.62 66.6821 131.021 66.6769 130.438 66.6665C129.865 66.6561 129.198 66.6509 128.438 66.6509C127.542 66.6509 126.661 66.6561 125.797 66.6665C124.943 66.6665 124.016 66.6717 123.016 66.6821V64.104C123.057 64.104 123.115 64.104 123.188 64.104C123.271 64.104 123.354 64.104 123.438 64.104C123.521 64.104 123.599 64.104 123.672 64.104C123.745 64.0936 123.797 64.0884 123.828 64.0884C124.328 64.0675 124.672 64.0155 124.859 63.9321C125.047 63.8488 125.141 63.703 125.141 63.4946C125.141 63.3696 125.115 63.2186 125.062 63.0415C125.01 62.854 124.943 62.6405 124.859 62.4009L123.859 59.4478H116.656C116.625 59.5623 116.552 59.7863 116.438 60.1196C116.323 60.4425 116.198 60.7915 116.062 61.1665C115.938 61.5415 115.823 61.8905 115.719 62.2134C115.615 62.5363 115.552 62.7394 115.531 62.8228C115.479 62.9686 115.438 63.104 115.406 63.229C115.385 63.3436 115.375 63.4373 115.375 63.5103C115.375 63.7394 115.443 63.8957 115.578 63.979C115.724 64.0519 115.964 64.0936 116.297 64.104C116.328 64.104 116.396 64.1092 116.5 64.1196C116.604 64.1196 116.719 64.1196 116.844 64.1196C116.969 64.1196 117.083 64.1196 117.188 64.1196C117.302 64.1196 117.38 64.1196 117.422 64.1196V66.6821C116.786 66.6821 116.146 66.6769 115.5 66.6665C114.854 66.6561 114.156 66.6509 113.406 66.6509C113.042 66.6509 112.698 66.6509 112.375 66.6509C112.062 66.6509 111.755 66.6561 111.453 66.6665C111.151 66.6665 110.844 66.6717 110.531 66.6821C110.219 66.6821 109.885 66.6821 109.531 66.6821V63.9009C109.906 63.8592 110.208 63.8228 110.438 63.7915C110.677 63.7603 110.875 63.703 111.031 63.6196C111.188 63.5259 111.323 63.3957 111.438 63.229C111.552 63.0519 111.672 62.8071 111.797 62.4946C111.88 62.2967 112.01 61.9738 112.188 61.5259C112.365 61.078 112.568 60.5519 112.797 59.9478C113.036 59.3436 113.297 58.6873 113.578 57.979C113.859 57.2603 114.146 56.5311 114.438 55.7915C114.729 55.0519 115.016 54.3228 115.297 53.604C115.578 52.8853 115.839 52.2238 116.078 51.6196C116.318 51.005 116.526 50.4738 116.703 50.0259C116.88 49.5675 117.01 49.2342 117.094 49.0259L117.812 46.2446H123.859ZM117.375 57.4165H123.141L120.344 49.1978L120.312 49.1821L117.375 57.4165ZM133.219 46.2446C133.292 46.2446 133.474 46.2498 133.766 46.2603C134.068 46.2603 134.406 46.2655 134.781 46.2759C135.156 46.2759 135.531 46.2811 135.906 46.2915C136.292 46.2915 136.609 46.2915 136.859 46.2915C137.359 46.2915 137.849 46.2915 138.328 46.2915C138.807 46.2915 139.297 46.2915 139.797 46.2915C140.297 46.2811 140.818 46.2759 141.359 46.2759C141.901 46.2655 142.484 46.255 143.109 46.2446V49.0259H142.094C141.74 49.0259 141.464 49.078 141.266 49.1821C141.068 49.2863 140.917 49.4217 140.812 49.5884C140.719 49.755 140.661 49.9478 140.641 50.1665C140.62 50.3748 140.609 50.5884 140.609 50.8071V57.2759C140.609 59.1405 140.615 61.2498 140.625 63.604H145.672C146.068 63.604 146.375 63.5207 146.594 63.354C146.823 63.1873 146.99 62.9425 147.094 62.6196C147.208 62.2863 147.281 61.88 147.312 61.4009C147.344 60.9217 147.359 60.3696 147.359 59.7446H150.219V66.6821H133.219V63.9009H133.953C134.328 63.9009 134.62 63.854 134.828 63.7603C135.047 63.6665 135.203 63.5415 135.297 63.3853C135.401 63.229 135.464 63.0415 135.484 62.8228C135.505 62.604 135.516 62.3696 135.516 62.1196V51.229V50.6196C135.516 50.4113 135.5 50.2134 135.469 50.0259C135.438 49.828 135.37 49.6561 135.266 49.5103C135.161 49.3644 135.005 49.2498 134.797 49.1665C134.589 49.0728 134.307 49.0259 133.953 49.0259H133.219V46.2446ZM158.688 51.7446C158.5 51.1092 158.354 50.6092 158.25 50.2446C158.146 49.88 158.021 49.6092 157.875 49.4321C157.74 49.255 157.547 49.1457 157.297 49.104C157.057 49.0519 156.698 49.0259 156.219 49.0259V46.2446C156.885 46.255 157.516 46.2603 158.109 46.2603C158.359 46.2603 158.615 46.2655 158.875 46.2759C159.146 46.2759 159.401 46.2759 159.641 46.2759C159.88 46.2759 160.099 46.2759 160.297 46.2759C160.505 46.2759 160.677 46.2759 160.812 46.2759C161.406 46.2759 162.042 46.2759 162.719 46.2759C163.396 46.2655 164.188 46.255 165.094 46.2446V49.0259C164.302 49.0467 163.724 49.0988 163.359 49.1821C163.172 49.3384 163.078 49.578 163.078 49.9009C163.078 50.0363 163.089 50.1873 163.109 50.354C163.13 50.5207 163.167 50.6978 163.219 50.8853C163.312 51.2186 163.438 51.703 163.594 52.3384C163.76 52.9738 163.938 53.6821 164.125 54.4634C164.323 55.2446 164.526 56.0675 164.734 56.9321C164.953 57.7863 165.156 58.604 165.344 59.3853C165.542 60.1665 165.719 60.8748 165.875 61.5103C166.042 62.1457 166.172 62.63 166.266 62.9634L170.359 47.4634H174.516L178.703 62.979L181.766 50.6196C181.807 50.4425 181.844 50.2811 181.875 50.1353C181.917 49.9894 181.948 49.8488 181.969 49.7134C181.917 49.505 181.781 49.3488 181.562 49.2446C181.344 49.1405 180.995 49.078 180.516 49.0571C180.464 49.0467 180.359 49.0415 180.203 49.0415C180.057 49.0415 179.958 49.0363 179.906 49.0259V46.2446C180.729 46.255 181.448 46.2655 182.062 46.2759C182.677 46.2759 183.25 46.2759 183.781 46.2759C184.021 46.2759 184.328 46.2759 184.703 46.2759C185.089 46.2759 185.474 46.2759 185.859 46.2759C186.245 46.2655 186.599 46.2603 186.922 46.2603C187.255 46.2498 187.49 46.2446 187.625 46.2446V49.0259C187.25 49.0363 186.932 49.0728 186.672 49.1353C186.422 49.1873 186.203 49.2967 186.016 49.4634C185.828 49.63 185.656 49.8748 185.5 50.1978C185.354 50.5207 185.198 50.953 185.031 51.4946C184.969 51.6613 184.875 51.9478 184.75 52.354C184.635 52.7603 184.49 53.255 184.312 53.8384C184.146 54.4113 183.958 55.0519 183.75 55.7603C183.552 56.4686 183.339 57.2134 183.109 57.9946C182.891 58.7759 182.661 59.5728 182.422 60.3853C182.193 61.1873 181.964 61.979 181.734 62.7603C181.516 63.5415 181.302 64.2863 181.094 64.9946C180.885 65.703 180.693 66.3436 180.516 66.9165H175.703L171.953 52.0571L168.172 66.9165H163.219L158.688 51.7446ZM198.906 45.854C200.625 45.854 202.146 46.1248 203.469 46.6665C204.802 47.2082 205.922 47.9582 206.828 48.9165C207.745 49.8644 208.438 50.9842 208.906 52.2759C209.385 53.5675 209.625 54.9582 209.625 56.4478C209.625 57.9373 209.385 59.328 208.906 60.6196C208.438 61.9113 207.75 63.0363 206.844 63.9946C205.938 64.953 204.823 65.7082 203.5 66.2603C202.177 66.8123 200.661 67.0884 198.953 67.0884C197.224 67.0884 195.688 66.8175 194.344 66.2759C193 65.7342 191.87 64.9894 190.953 64.0415C190.036 63.0832 189.339 61.9582 188.859 60.6665C188.38 59.3644 188.141 57.9582 188.141 56.4478C188.141 54.9582 188.375 53.5728 188.844 52.2915C189.312 50.9998 190 49.88 190.906 48.9321C191.823 47.9738 192.948 47.2238 194.281 46.6821C195.625 46.13 197.167 45.854 198.906 45.854ZM198.891 48.8853C197.995 48.8853 197.224 49.0571 196.578 49.4009C195.943 49.7446 195.417 50.2446 195 50.9009C194.594 51.5467 194.292 52.3384 194.094 53.2759C193.906 54.203 193.812 55.2498 193.812 56.4165C193.812 57.6353 193.917 58.7186 194.125 59.6665C194.333 60.6144 194.646 61.4165 195.062 62.0728C195.479 62.7186 196.005 63.2134 196.641 63.5571C197.276 63.8905 198.026 64.0571 198.891 64.0571C199.766 64.0571 200.521 63.8853 201.156 63.5415C201.802 63.1873 202.328 62.6821 202.734 62.0259C203.151 61.3696 203.458 60.5728 203.656 59.6353C203.865 58.6873 203.969 57.6196 203.969 56.4321C203.969 53.9946 203.552 52.13 202.719 50.8384C201.885 49.5363 200.609 48.8853 198.891 48.8853ZM229.984 61.0259C230.078 61.5467 230.167 61.9998 230.25 62.3853C230.344 62.7603 230.448 63.0728 230.562 63.3228C230.688 63.5728 230.833 63.7603 231 63.8853C231.177 63.9998 231.391 64.0571 231.641 64.0571C232.005 64.0571 232.281 63.953 232.469 63.7446C232.656 63.5363 232.75 63.1821 232.75 62.6821L234.562 62.4634C234.562 62.4738 234.562 62.505 234.562 62.5571C234.562 62.5988 234.557 62.6509 234.547 62.7134C234.547 62.7655 234.547 62.8175 234.547 62.8696C234.547 62.9113 234.547 62.9373 234.547 62.9478C234.526 63.6769 234.411 64.3019 234.203 64.8228C234.005 65.3436 233.719 65.7759 233.344 66.1196C232.969 66.453 232.516 66.6978 231.984 66.854C231.464 67.0103 230.87 67.0884 230.203 67.0884C229.401 67.0884 228.703 66.9738 228.109 66.7446C227.516 66.5155 227.005 66.1717 226.578 65.7134C226.151 65.255 225.797 64.6821 225.516 63.9946C225.234 63.2967 225.005 62.479 224.828 61.5415C224.672 60.7082 224.484 60.0155 224.266 59.4634C224.057 58.9113 223.823 58.453 223.562 58.0884C223.281 57.8592 222.943 57.7082 222.547 57.6353C222.151 57.5519 221.661 57.5103 221.078 57.5103H219.719L219.703 62.7759C219.703 63.0155 219.724 63.2134 219.766 63.3696C219.818 63.5155 219.901 63.63 220.016 63.7134C220.13 63.7863 220.286 63.8384 220.484 63.8696C220.682 63.8905 220.938 63.9009 221.25 63.9009H221.938V66.6821C221.552 66.6821 221.167 66.6821 220.781 66.6821C220.406 66.6821 220.021 66.6821 219.625 66.6821C219.229 66.6717 218.807 66.6665 218.359 66.6665C217.922 66.6561 217.448 66.6509 216.938 66.6509C216.438 66.6509 215.979 66.6561 215.562 66.6665C215.156 66.6665 214.771 66.6665 214.406 66.6665C214.042 66.6665 213.688 66.6717 213.344 66.6821C213.01 66.6821 212.667 66.6821 212.312 66.6821V63.9009H212.812C213.26 63.9009 213.604 63.8696 213.844 63.8071C214.094 63.7342 214.271 63.63 214.375 63.4946C214.49 63.3592 214.552 63.1925 214.562 62.9946C214.583 62.7967 214.594 62.5675 214.594 62.3071V50.6353C214.594 50.3436 214.578 50.0988 214.547 49.9009C214.526 49.6925 214.453 49.5259 214.328 49.4009C214.214 49.2655 214.031 49.1717 213.781 49.1196C213.531 49.0571 213.182 49.0259 212.734 49.0259H212.312V46.2446H222.297C223.057 46.2446 223.807 46.2707 224.547 46.3228C225.297 46.3748 226.005 46.479 226.672 46.6353C227.349 46.7811 227.974 46.9842 228.547 47.2446C229.13 47.505 229.63 47.8436 230.047 48.2603C230.474 48.6769 230.807 49.1821 231.047 49.7759C231.286 50.3696 231.406 51.0675 231.406 51.8696C231.406 52.4321 231.312 52.9686 231.125 53.479C230.938 53.979 230.661 54.4321 230.297 54.8384C229.943 55.2446 229.505 55.5936 228.984 55.8853C228.474 56.1769 227.891 56.3957 227.234 56.5415C227.547 56.6873 227.844 56.8696 228.125 57.0884C228.417 57.3071 228.682 57.5884 228.922 57.9321C229.161 58.2759 229.37 58.6978 229.547 59.1978C229.734 59.6978 229.88 60.3071 229.984 61.0259ZM219.703 55.2446H222.125C222.823 55.2446 223.427 55.1978 223.938 55.104C224.458 54.9998 224.885 54.828 225.219 54.5884C225.552 54.3488 225.802 54.0363 225.969 53.6509C226.135 53.2655 226.219 52.7811 226.219 52.1978C226.219 51.5832 226.12 51.078 225.922 50.6821C225.724 50.2759 225.432 49.9582 225.047 49.729C224.672 49.4894 224.198 49.328 223.625 49.2446C223.062 49.1509 222.406 49.104 221.656 49.104H219.703V55.2446ZM235.281 46.2446C235.354 46.2446 235.536 46.2498 235.828 46.2603C236.13 46.2603 236.469 46.2655 236.844 46.2759C237.219 46.2759 237.594 46.2811 237.969 46.2915C238.354 46.2915 238.672 46.2915 238.922 46.2915C239.422 46.2915 239.911 46.2915 240.391 46.2915C240.87 46.2915 241.359 46.2915 241.859 46.2915C242.359 46.2811 242.88 46.2759 243.422 46.2759C243.964 46.2655 244.547 46.255 245.172 46.2446V49.0259H244.156C243.802 49.0259 243.526 49.078 243.328 49.1821C243.13 49.2863 242.979 49.4217 242.875 49.5884C242.781 49.755 242.724 49.9478 242.703 50.1665C242.682 50.3748 242.672 50.5884 242.672 50.8071V57.2759C242.672 59.1405 242.677 61.2498 242.688 63.604H247.734C248.13 63.604 248.438 63.5207 248.656 63.354C248.885 63.1873 249.052 62.9425 249.156 62.6196C249.271 62.2863 249.344 61.88 249.375 61.4009C249.406 60.9217 249.422 60.3696 249.422 59.7446H252.281V66.6821H235.281V63.9009H236.016C236.391 63.9009 236.682 63.854 236.891 63.7603C237.109 63.6665 237.266 63.5415 237.359 63.3853C237.464 63.229 237.526 63.0415 237.547 62.8228C237.568 62.604 237.578 62.3696 237.578 62.1196V51.229V50.6196C237.578 50.4113 237.562 50.2134 237.531 50.0259C237.5 49.828 237.432 49.6561 237.328 49.5103C237.224 49.3644 237.068 49.2498 236.859 49.1665C236.651 49.0728 236.37 49.0259 236.016 49.0259H235.281V46.2446ZM262.609 46.2446C267.047 46.2446 270.354 47.0884 272.531 48.7759C274.708 50.453 275.797 52.979 275.797 56.354C275.797 58.3019 275.49 59.9373 274.875 61.2603C274.271 62.5728 273.406 63.6353 272.281 64.4478C271.167 65.2498 269.818 65.8228 268.234 66.1665C266.661 66.5103 264.901 66.6821 262.953 66.6821H253.859V63.9009H254.625C254.948 63.9009 255.203 63.8592 255.391 63.7759C255.578 63.6821 255.719 63.5623 255.812 63.4165C255.906 63.2603 255.964 63.078 255.984 62.8696C256.016 62.6613 256.031 62.4321 256.031 62.1821C256.031 62.1509 256.031 61.9634 256.031 61.6196C256.031 61.2655 256.026 60.8123 256.016 60.2603C256.016 59.7082 256.016 59.0832 256.016 58.3853C256.016 57.6873 256.016 56.979 256.016 56.2603V50.5103C256.016 50.2915 255.995 50.0936 255.953 49.9165C255.922 49.7394 255.854 49.5832 255.75 49.4478C255.656 49.3123 255.516 49.2082 255.328 49.1353C255.151 49.0519 254.917 49.0103 254.625 49.0103H253.859V46.2446H262.609ZM261.141 63.6509H263.391C264.536 63.6509 265.536 63.5103 266.391 63.229C267.255 62.9478 267.969 62.5103 268.531 61.9165C269.104 61.3123 269.531 60.5467 269.812 59.6196C270.104 58.6925 270.25 57.5832 270.25 56.2915C270.25 53.854 269.682 52.078 268.547 50.9634C267.422 49.8384 265.698 49.2759 263.375 49.2759H261.141V63.6509Z" fill="#5213A3"/>
</svg>
