<svg width="62" height="48" viewBox="0 0 62 48" fill="none" xmlns="http://www.w3.org/2000/svg">
<path d="M37.5798 5.46138C33.6339 3.72027 32.9106 7.06698 32.8386 7.7897H32.8317V7.88415C32.8283 7.94164 32.8249 7.97859 32.8249 7.97859H32.8317C33.2191 9.9127 33.5036 10.7997 37.2302 10.541C40.8778 10.2864 40.991 8.92717 40.991 8.92717C40.991 8.92717 41.3475 7.12447 37.5798 5.46138ZM35.0464 6.57832C35.0464 6.57832 35.5537 5.71187 36.3457 6.8904C36.3422 6.8904 35.6257 7.73632 35.0464 6.57832ZM28.3304 42.5092C27.9567 42.7186 27.0517 43.1908 25.6769 43.737C23.2634 44.6938 26.2186 44.6897 26.2186 44.6897C26.2186 44.6897 27.0894 44.6075 28.3544 44.1394L28.3304 42.5092ZM32.2352 15.4933L32.1803 19.2835C33.7882 19.4436 35.1321 19.998 35.5092 21.3367C36.5239 24.938 31.2136 25.3075 26.9077 27.0199C22.4235 28.8021 22.9138 35.516 28.2447 36.7315L28.2001 33.6804C28.1453 33.6599 28.0904 33.6353 28.039 33.6147C27.4905 33.356 26.9831 32.892 26.8357 32.4362C26.6917 31.4712 27.3774 30.0791 29.6331 29.4632C33.7299 28.338 37.189 27.6112 38.2175 25.2418C40.8264 19.226 36.2085 15.5754 32.2352 15.4933Z" fill="#CCB5E9"/>
<path d="M33.6588 6.62073C29.4732 6.92624 21.781 8.09875 20.416 12.8879C18.6714 19.0188 23.6962 20.8601 26.1581 20.4926C26.6979 20.4142 27.3073 20.3647 28.0211 20.2078L27.9689 16.7026C24.0584 16.8843 22.756 15.4765 24.2255 13.5443C26.0885 11.0961 30.6467 10.5057 33.5369 10.386M32.4017 35.2357C32.2798 35.2233 32.1684 35.2109 32.0535 35.1985L32.0117 37.9275C33.2688 38.2619 32.8161 39.0835 32.0117 40.2973C32.0013 40.3138 31.9873 40.3303 31.9769 40.3468L31.9351 43.0345C32.2346 42.7992 32.534 42.5473 32.8335 42.2666C33.8677 41.2923 34.1045 40.8835 34.7348 39.9711C35.7063 38.2248 35.6645 35.5536 32.4017 35.2357Z" fill="#CCB5E9"/>
<path d="M29.6356 11.449L29.7813 25.3669C30.2709 25.0939 30.8781 24.7407 31.2537 24.5199L31.3976 10.8549C30.9678 10.9432 30.2821 11.1198 29.6356 11.449ZM30.7006 29.9513C30.7006 29.9513 30.1251 30.2002 29.8355 30.4531L30.0037 46.4585C30.0037 47.3135 30.2335 48 30.5138 48C30.794 48 31.0239 47.438 31.0239 46.4585L31.1995 29.6984L30.7006 29.9513ZM30.4857 0C29.9383 0 29.5758 0.963452 29.5758 2.14368V4.43589L29.5963 6.36681C29.9121 6.21828 30.5082 5.98545 31.4667 5.76867L31.4798 4.43991V2.1477C31.4817 0.963452 31.0332 0 30.4857 0Z" fill="#CCB5E9"/>
<path d="M0.263184 21.5293C0.295085 21.5293 0.350911 21.5304 0.430664 21.5327C0.512695 21.5327 0.602702 21.5339 0.700684 21.5361C0.798665 21.5361 0.897786 21.5361 0.998047 21.5361C1.09831 21.5361 1.18376 21.5361 1.25439 21.5361C1.31592 21.5361 1.3877 21.5361 1.46973 21.5361C1.55404 21.5361 1.64176 21.5361 1.73291 21.5361C1.82633 21.5339 1.91976 21.5327 2.01318 21.5327C2.10661 21.5304 2.19661 21.5293 2.2832 21.5293L2.80273 23.0947C2.86654 23.2907 2.9292 23.4821 2.99072 23.6689C3.05452 23.8558 3.11035 24.0233 3.1582 24.1714C3.20605 24.3172 3.24479 24.4357 3.27441 24.5269C3.30632 24.6157 3.32227 24.6602 3.32227 24.6602C3.34277 24.5827 3.37923 24.4642 3.43164 24.3047C3.48405 24.1429 3.54443 23.9606 3.61279 23.7578C3.68343 23.5527 3.75749 23.3374 3.83496 23.1118C3.91243 22.8862 3.98649 22.6709 4.05713 22.4658C4.12777 22.2585 4.19043 22.0716 4.24512 21.9053C4.30208 21.7389 4.3431 21.6136 4.36816 21.5293C4.4502 21.5293 4.54134 21.5304 4.6416 21.5327C4.74414 21.5327 4.84668 21.5339 4.94922 21.5361C5.05404 21.5361 5.1543 21.5361 5.25 21.5361C5.3457 21.5361 5.42773 21.5361 5.49609 21.5361C5.55078 21.5361 5.62256 21.5361 5.71143 21.5361C5.80257 21.5361 5.89372 21.5361 5.98486 21.5361C6.07601 21.5339 6.15804 21.5327 6.23096 21.5327C6.30387 21.5304 6.35286 21.5293 6.37793 21.5293V22.1377H6.20361C6.13298 22.1377 6.07715 22.1434 6.03613 22.1548C5.9974 22.1639 5.96777 22.1787 5.94727 22.1992C5.92904 22.2174 5.91764 22.2414 5.91309 22.271C5.90853 22.3006 5.90625 22.3348 5.90625 22.3735V23.7339C5.90625 24.1281 5.90739 24.5758 5.90967 25.0771C5.90967 25.1387 5.91309 25.1899 5.91992 25.231C5.92676 25.272 5.94043 25.305 5.96094 25.3301C5.98372 25.3529 6.01562 25.3688 6.05664 25.3779C6.09766 25.387 6.15234 25.3916 6.2207 25.3916H6.38818V26C6.3016 26 6.21729 26 6.13525 26C6.05322 25.9977 5.96777 25.9966 5.87891 25.9966C5.79232 25.9966 5.70003 25.9966 5.60205 25.9966C5.50635 25.9943 5.40267 25.9932 5.29102 25.9932C5.19303 25.9932 5.10531 25.9943 5.02783 25.9966C4.95264 25.9966 4.88086 25.9966 4.8125 25.9966C4.74642 25.9966 4.68148 25.9977 4.61768 26C4.55615 26 4.49121 26 4.42285 26V25.3916H4.56299C4.64046 25.3916 4.70085 25.3825 4.74414 25.3643C4.78971 25.3438 4.82389 25.3153 4.84668 25.2788C4.87174 25.2401 4.8877 25.1934 4.89453 25.1387C4.90137 25.084 4.90479 25.0225 4.90479 24.9541V22.0728L4.70996 22.6094L3.5 26H2.87109C2.85059 25.9453 2.81982 25.861 2.77881 25.7471C2.73779 25.6331 2.68994 25.501 2.63525 25.3506C2.58285 25.1979 2.52588 25.0327 2.46436 24.855C2.40283 24.675 2.34017 24.4938 2.27637 24.3115C2.21257 24.127 2.14876 23.9458 2.08496 23.7681C2.02344 23.5903 1.96533 23.4263 1.91064 23.2759C1.85824 23.1232 1.81152 22.9899 1.77051 22.876C1.73177 22.7598 1.70215 22.6743 1.68164 22.6196L1.58594 22.353C1.57454 22.3211 1.56201 22.2892 1.54834 22.2573C1.53695 22.2231 1.52669 22.1935 1.51758 22.1685C1.50618 22.1388 1.49593 22.1104 1.48682 22.083V25.0874C1.48682 25.1558 1.49023 25.2104 1.49707 25.2515C1.50618 25.2902 1.521 25.3198 1.5415 25.3403C1.56429 25.3608 1.59505 25.3745 1.63379 25.3813C1.6748 25.3882 1.72835 25.3916 1.79443 25.3916H1.9585V26C1.89242 26 1.82861 26 1.76709 26C1.70557 25.9977 1.64176 25.9966 1.57568 25.9966C1.5096 25.9966 1.43896 25.9966 1.36377 25.9966C1.29085 25.9943 1.20996 25.9932 1.12109 25.9932C1.02539 25.9932 0.938802 25.9943 0.861328 25.9966C0.783854 25.9966 0.710938 25.9966 0.642578 25.9966C0.574219 25.9966 0.506999 25.9977 0.440918 26C0.377116 26 0.311035 26 0.242676 26V25.3916H0.410156C0.492188 25.3916 0.55485 25.3836 0.598145 25.3677C0.641439 25.3494 0.672201 25.3244 0.69043 25.2925C0.708659 25.2606 0.718913 25.2218 0.721191 25.1763C0.725749 25.1307 0.729167 25.0783 0.731445 25.019L0.734863 22.4487C0.734863 22.394 0.730306 22.3473 0.721191 22.3086C0.714355 22.2699 0.699544 22.238 0.676758 22.2129C0.65625 22.1855 0.625488 22.1662 0.584473 22.1548C0.543457 22.1434 0.489909 22.1377 0.423828 22.1377H0.263184V21.5293ZM10.77 21.5293V22.7734H10.1035V22.6333C10.1035 22.5239 10.0921 22.4396 10.0693 22.3804C10.0465 22.3211 10.0146 22.279 9.97363 22.2539C9.93262 22.2266 9.88249 22.2106 9.82324 22.2061C9.764 22.2015 9.69792 22.1992 9.625 22.1992H8.47998V23.4399H9.15332C9.20345 23.4399 9.24561 23.4377 9.27979 23.4331C9.31624 23.4263 9.34701 23.4126 9.37207 23.3921C9.39714 23.3716 9.41764 23.3397 9.43359 23.2964C9.45182 23.2531 9.46663 23.1938 9.47803 23.1187H9.76855V24.3286H9.47461C9.46094 24.2557 9.44613 24.1976 9.43018 24.1543C9.41423 24.111 9.39372 24.0791 9.36865 24.0586C9.34359 24.0358 9.31396 24.0221 9.27979 24.0176C9.24561 24.0107 9.20345 24.0073 9.15332 24.0073H8.47998V25.3369H9.67285C9.75716 25.3369 9.8278 25.3312 9.88477 25.3198C9.94173 25.3084 9.9873 25.2834 10.0215 25.2446C10.0579 25.2059 10.0841 25.1512 10.1001 25.0806C10.116 25.0076 10.124 24.9108 10.124 24.79V24.6807H10.7837V26H6.86328V25.3916H7.11621C7.17546 25.3916 7.22103 25.3813 7.25293 25.3608C7.28711 25.3403 7.31217 25.3118 7.32812 25.2754C7.34635 25.2389 7.35661 25.1979 7.35889 25.1523C7.36344 25.1068 7.36572 25.0578 7.36572 25.0054V22.5444C7.36572 22.4943 7.36458 22.4442 7.3623 22.394C7.36003 22.3439 7.35091 22.2995 7.33496 22.2607C7.31901 22.222 7.29395 22.1912 7.25977 22.1685C7.22786 22.1434 7.18001 22.1309 7.11621 22.1309H6.87695V21.5293H10.77ZM13.2651 21.5293C14.2358 21.5293 14.9593 21.7139 15.4355 22.083C15.9118 22.4499 16.1499 23.0024 16.1499 23.7407C16.1499 24.1668 16.0827 24.5246 15.9482 24.814C15.8161 25.1011 15.627 25.3335 15.3809 25.5112C15.137 25.6867 14.842 25.812 14.4956 25.8872C14.1515 25.9624 13.7664 26 13.3403 26H11.3511V25.3916H11.5186C11.5892 25.3916 11.645 25.3825 11.686 25.3643C11.7271 25.3438 11.7578 25.3175 11.7783 25.2856C11.7988 25.2515 11.8114 25.2116 11.8159 25.166C11.8228 25.1204 11.8262 25.0703 11.8262 25.0156C11.8262 25.0088 11.8262 24.9678 11.8262 24.8926C11.8262 24.8151 11.825 24.716 11.8228 24.5952C11.8228 24.4744 11.8228 24.3377 11.8228 24.1851C11.8228 24.0324 11.8228 23.8774 11.8228 23.7202V22.4624C11.8228 22.4146 11.8182 22.3713 11.8091 22.3325C11.8022 22.2938 11.7874 22.2596 11.7646 22.23C11.7441 22.2004 11.7134 22.1776 11.6724 22.1616C11.6336 22.1434 11.5824 22.1343 11.5186 22.1343H11.3511V21.5293H13.2651ZM12.9438 25.3369H13.436C13.6867 25.3369 13.9054 25.3062 14.0923 25.2446C14.2814 25.1831 14.4375 25.0874 14.5605 24.9575C14.6859 24.8254 14.7793 24.6579 14.8408 24.4551C14.9046 24.2523 14.9365 24.0096 14.9365 23.7271C14.9365 23.1938 14.8123 22.8053 14.564 22.5615C14.3179 22.3154 13.9408 22.1924 13.4326 22.1924H12.9438V25.3369ZM16.7993 21.5293C16.9019 21.5316 16.9953 21.5339 17.0796 21.5361C17.1639 21.5361 17.2425 21.5361 17.3154 21.5361C17.3883 21.5361 17.4578 21.5361 17.5239 21.5361C17.5923 21.5361 17.6595 21.5361 17.7256 21.5361C17.8623 21.5361 17.9831 21.5361 18.0879 21.5361C18.195 21.5361 18.293 21.5361 18.3818 21.5361C18.473 21.5361 18.5596 21.5361 18.6416 21.5361C18.7259 21.5339 18.8136 21.5316 18.9048 21.5293V22.1377H18.7612C18.6792 22.1377 18.6143 22.1457 18.5664 22.1616C18.5208 22.1753 18.4855 22.1969 18.4604 22.2266C18.4377 22.2539 18.4229 22.2881 18.416 22.3291C18.4115 22.3678 18.4092 22.4123 18.4092 22.4624V25.0806C18.4092 25.1421 18.4115 25.1934 18.416 25.2344C18.4206 25.2731 18.4342 25.305 18.457 25.3301C18.4798 25.3529 18.514 25.3688 18.5596 25.3779C18.6074 25.387 18.6746 25.3916 18.7612 25.3916H18.9048V26C18.8205 26 18.7384 26 18.6587 26C18.5789 25.9977 18.4969 25.9966 18.4126 25.9966C18.3306 25.9966 18.2417 25.9966 18.146 25.9966C18.0526 25.9943 17.95 25.9932 17.8384 25.9932C17.6287 25.9932 17.443 25.9943 17.2812 25.9966C17.1217 25.9989 16.9611 26 16.7993 26V25.3916H16.936C17.0249 25.3916 17.0933 25.3836 17.1411 25.3677C17.189 25.3517 17.2243 25.3278 17.2471 25.2959C17.2699 25.264 17.2824 25.2241 17.2847 25.1763C17.2892 25.1284 17.2915 25.0726 17.2915 25.0088V22.5308C17.2915 22.4647 17.2892 22.4077 17.2847 22.3599C17.2801 22.3097 17.2664 22.2687 17.2437 22.2368C17.2209 22.2026 17.1855 22.1776 17.1377 22.1616C17.0898 22.1457 17.0226 22.1377 16.936 22.1377H16.7993V21.5293ZM22.0015 25.4258C22.1746 25.4258 22.3262 25.4076 22.4561 25.3711C22.5882 25.3346 22.6987 25.2754 22.7876 25.1934C22.8765 25.1113 22.9448 25.0042 22.9927 24.8721C23.0428 24.7399 23.0724 24.5781 23.0815 24.3867L23.7788 24.5371L23.7275 25.5762C23.4587 25.7562 23.1727 25.8872 22.8696 25.9692C22.5666 26.049 22.2384 26.0889 21.8853 26.0889C21.4705 26.0889 21.1139 26.0285 20.8154 25.9077C20.5169 25.7869 20.272 25.6217 20.0806 25.4121C19.8892 25.2025 19.7479 24.9564 19.6567 24.6738C19.5656 24.3913 19.52 24.0882 19.52 23.7646C19.52 23.4251 19.5713 23.113 19.6738 22.8281C19.7786 22.5433 19.9279 22.2983 20.1216 22.0933C20.3153 21.8882 20.5511 21.7287 20.8291 21.6147C21.1071 21.5008 21.4215 21.4438 21.7725 21.4438C21.8773 21.4438 21.9855 21.453 22.0972 21.4712C22.2088 21.4894 22.3159 21.5156 22.4185 21.5498C22.521 21.584 22.6156 21.625 22.7021 21.6729C22.791 21.7207 22.8662 21.7743 22.9277 21.8335L22.9448 21.5396H23.7036V22.9409L23.0029 22.9375C22.9847 22.6777 22.8913 22.4749 22.7227 22.3291C22.554 22.181 22.3102 22.1069 21.9912 22.1069C21.7975 22.1069 21.6243 22.1423 21.4717 22.2129C21.319 22.2835 21.1891 22.3883 21.082 22.5273C20.9772 22.6641 20.8963 22.8361 20.8394 23.0435C20.7824 23.2485 20.7539 23.4855 20.7539 23.7544C20.7539 24.0187 20.7824 24.2546 20.8394 24.4619C20.8963 24.6693 20.9784 24.8447 21.0854 24.9883C21.1925 25.1296 21.3224 25.2378 21.4751 25.313C21.63 25.3882 21.8055 25.4258 22.0015 25.4258ZM27.0942 21.5293C27.2925 22.0671 27.4736 22.557 27.6377 22.999C27.7083 23.1882 27.7778 23.3761 27.8462 23.563C27.9146 23.7476 27.9772 23.9185 28.0342 24.0757C28.0934 24.2306 28.1436 24.3639 28.1846 24.4756C28.2256 24.585 28.2529 24.6579 28.2666 24.6943C28.3236 24.8516 28.368 24.9757 28.3999 25.0669C28.4318 25.158 28.4671 25.2275 28.5059 25.2754C28.5469 25.3232 28.5981 25.3551 28.6597 25.3711C28.7212 25.3848 28.8101 25.3927 28.9263 25.395V26C28.7918 26 28.6608 25.9989 28.5332 25.9966C28.4079 25.9943 28.262 25.9932 28.0957 25.9932C27.8997 25.9932 27.7072 25.9943 27.5181 25.9966C27.3312 25.9966 27.1284 25.9977 26.9097 26V25.436C26.9188 25.436 26.9313 25.436 26.9473 25.436C26.9655 25.436 26.9837 25.436 27.002 25.436C27.0202 25.436 27.0373 25.436 27.0532 25.436C27.0692 25.4338 27.0806 25.4326 27.0874 25.4326C27.1968 25.4281 27.272 25.4167 27.313 25.3984C27.354 25.3802 27.3745 25.3483 27.3745 25.3027C27.3745 25.2754 27.3688 25.2424 27.3574 25.2036C27.346 25.1626 27.3312 25.1159 27.313 25.0635L27.0942 24.4175H25.5186C25.5117 24.4425 25.4958 24.4915 25.4707 24.5645C25.4456 24.6351 25.4183 24.7114 25.3887 24.7935C25.3613 24.8755 25.3363 24.9518 25.3135 25.0225C25.2907 25.0931 25.277 25.1375 25.2725 25.1558C25.2611 25.1877 25.252 25.2173 25.2451 25.2446C25.2406 25.2697 25.2383 25.2902 25.2383 25.3062C25.2383 25.3563 25.2531 25.3905 25.2827 25.4087C25.3146 25.4246 25.367 25.4338 25.4399 25.436C25.4468 25.436 25.4616 25.4372 25.4844 25.4395C25.5072 25.4395 25.5322 25.4395 25.5596 25.4395C25.5869 25.4395 25.612 25.4395 25.6348 25.4395C25.6598 25.4395 25.6769 25.4395 25.686 25.4395V26C25.547 26 25.4069 25.9989 25.2656 25.9966C25.1243 25.9943 24.9717 25.9932 24.8076 25.9932C24.7279 25.9932 24.6527 25.9932 24.582 25.9932C24.5137 25.9932 24.4465 25.9943 24.3804 25.9966C24.3143 25.9966 24.2471 25.9977 24.1787 26C24.1104 26 24.0374 26 23.96 26V25.3916C24.042 25.3825 24.1081 25.3745 24.1582 25.3677C24.2106 25.3608 24.2539 25.3483 24.2881 25.3301C24.3223 25.3096 24.3519 25.2811 24.377 25.2446C24.402 25.2059 24.4282 25.1523 24.4556 25.084C24.4738 25.0407 24.5023 24.9701 24.541 24.8721C24.5798 24.7741 24.6242 24.659 24.6743 24.5269C24.7267 24.3947 24.7837 24.2511 24.8452 24.0962C24.9067 23.939 24.9694 23.7795 25.0332 23.6177C25.097 23.4559 25.1597 23.2964 25.2212 23.1392C25.2827 22.9819 25.3397 22.8372 25.3921 22.7051C25.4445 22.5706 25.4901 22.4544 25.5288 22.3564C25.5675 22.2562 25.596 22.1833 25.6143 22.1377L25.7715 21.5293H27.0942ZM25.6758 23.9731H26.937L26.3252 22.1753L26.3184 22.1719L25.6758 23.9731ZM29.1416 21.5293C29.1576 21.5293 29.1974 21.5304 29.2612 21.5327C29.3273 21.5327 29.4014 21.5339 29.4834 21.5361C29.5654 21.5361 29.6475 21.5373 29.7295 21.5396C29.8138 21.5396 29.8833 21.5396 29.938 21.5396C30.0474 21.5396 30.1545 21.5396 30.2593 21.5396C30.3641 21.5396 30.4712 21.5396 30.5806 21.5396C30.6899 21.5373 30.8039 21.5361 30.9224 21.5361C31.0409 21.5339 31.1685 21.5316 31.3052 21.5293V22.1377H31.083C31.0055 22.1377 30.9451 22.1491 30.9019 22.1719C30.8586 22.1947 30.8255 22.2243 30.8027 22.2607C30.7822 22.2972 30.7697 22.3394 30.7651 22.3872C30.7606 22.4328 30.7583 22.4795 30.7583 22.5273V23.9424C30.7583 24.3503 30.7594 24.8117 30.7617 25.3267H31.8657C31.9523 25.3267 32.0195 25.3084 32.0674 25.272C32.1175 25.2355 32.154 25.182 32.1768 25.1113C32.2018 25.0384 32.2178 24.9495 32.2246 24.8447C32.2314 24.7399 32.2349 24.6191 32.2349 24.4824H32.8604V26H29.1416V25.3916H29.3022C29.3843 25.3916 29.4481 25.3813 29.4937 25.3608C29.5415 25.3403 29.5757 25.313 29.5962 25.2788C29.619 25.2446 29.6326 25.2036 29.6372 25.1558C29.6418 25.1079 29.644 25.0566 29.644 25.002V22.6196V22.4863C29.644 22.4408 29.6406 22.3975 29.6338 22.3564C29.627 22.3132 29.6121 22.2756 29.5894 22.2437C29.5666 22.2118 29.5324 22.1867 29.4868 22.1685C29.4412 22.1479 29.3797 22.1377 29.3022 22.1377H29.1416V21.5293ZM34.7129 22.7324C34.6719 22.5934 34.64 22.484 34.6172 22.4043C34.5944 22.3245 34.5671 22.2653 34.5352 22.2266C34.5055 22.1878 34.4634 22.1639 34.4087 22.1548C34.3563 22.1434 34.2777 22.1377 34.1729 22.1377V21.5293C34.3187 21.5316 34.4565 21.5327 34.5864 21.5327C34.6411 21.5327 34.6969 21.5339 34.7539 21.5361C34.8132 21.5361 34.869 21.5361 34.9214 21.5361C34.9738 21.5361 35.0216 21.5361 35.0649 21.5361C35.1105 21.5361 35.1481 21.5361 35.1777 21.5361C35.3076 21.5361 35.4466 21.5361 35.5947 21.5361C35.7428 21.5339 35.916 21.5316 36.1143 21.5293V22.1377C35.9411 22.1423 35.8146 22.1536 35.7349 22.1719C35.6938 22.2061 35.6733 22.2585 35.6733 22.3291C35.6733 22.3587 35.6756 22.3918 35.6802 22.4282C35.6847 22.4647 35.6927 22.5034 35.7041 22.5444C35.7246 22.6174 35.752 22.7233 35.7861 22.8623C35.8226 23.0013 35.8613 23.1562 35.9023 23.3271C35.9456 23.498 35.9901 23.6781 36.0356 23.8672C36.0835 24.054 36.1279 24.2329 36.1689 24.4038C36.2122 24.5747 36.251 24.7297 36.2852 24.8687C36.3216 25.0076 36.3501 25.1136 36.3706 25.1865L37.2661 21.7959H38.1753L39.0913 25.1899L39.7612 22.4863C39.7703 22.4476 39.7783 22.4123 39.7852 22.3804C39.7943 22.3485 39.8011 22.3177 39.8057 22.2881C39.7943 22.2425 39.7646 22.2083 39.7168 22.1855C39.6689 22.1628 39.5926 22.1491 39.4878 22.1445C39.4764 22.1423 39.4536 22.1411 39.4194 22.1411C39.3875 22.1411 39.3659 22.14 39.3545 22.1377V21.5293C39.5345 21.5316 39.6917 21.5339 39.8262 21.5361C39.9606 21.5361 40.0859 21.5361 40.2021 21.5361C40.2546 21.5361 40.3218 21.5361 40.4038 21.5361C40.4881 21.5361 40.5724 21.5361 40.6567 21.5361C40.741 21.5339 40.8185 21.5327 40.8892 21.5327C40.9621 21.5304 41.0133 21.5293 41.043 21.5293V22.1377C40.9609 22.14 40.8914 22.1479 40.8345 22.1616C40.7798 22.173 40.7319 22.1969 40.6909 22.2334C40.6499 22.2699 40.6123 22.3234 40.5781 22.394C40.5462 22.4647 40.512 22.5592 40.4756 22.6777C40.4619 22.7142 40.4414 22.7769 40.4141 22.8657C40.389 22.9546 40.3571 23.0628 40.3184 23.1904C40.2819 23.3158 40.2409 23.4559 40.1953 23.6108C40.152 23.7658 40.1053 23.9287 40.0552 24.0996C40.0073 24.2705 39.9572 24.4448 39.9048 24.6226C39.8547 24.798 39.8045 24.9712 39.7544 25.1421C39.7065 25.313 39.6598 25.4759 39.6143 25.6309C39.5687 25.7858 39.5265 25.9259 39.4878 26.0513H38.4351L37.6147 22.8008L36.7876 26.0513H35.7041L34.7129 22.7324ZM43.5107 21.4438C43.8867 21.4438 44.2194 21.5031 44.5088 21.6216C44.8005 21.7401 45.0454 21.9041 45.2437 22.1138C45.4442 22.3211 45.5957 22.5661 45.6982 22.8486C45.8031 23.1312 45.8555 23.4354 45.8555 23.7612C45.8555 24.0871 45.8031 24.3913 45.6982 24.6738C45.5957 24.9564 45.4453 25.2025 45.2471 25.4121C45.0488 25.6217 44.805 25.7869 44.5156 25.9077C44.2262 26.0285 43.8947 26.0889 43.521 26.0889C43.1427 26.0889 42.8066 26.0296 42.5127 25.9111C42.2188 25.7926 41.9715 25.6297 41.771 25.4224C41.5705 25.2127 41.4178 24.9666 41.313 24.6841C41.2082 24.3993 41.1558 24.0916 41.1558 23.7612C41.1558 23.4354 41.207 23.1323 41.3096 22.8521C41.4121 22.5695 41.5625 22.3245 41.7607 22.1172C41.9613 21.9076 42.2074 21.7435 42.499 21.625C42.793 21.5042 43.1302 21.4438 43.5107 21.4438ZM43.5073 22.1069C43.3114 22.1069 43.1427 22.1445 43.0015 22.2197C42.8625 22.2949 42.7474 22.4043 42.6562 22.5479C42.5674 22.6891 42.5013 22.8623 42.458 23.0674C42.417 23.2702 42.3965 23.4992 42.3965 23.7544C42.3965 24.021 42.4193 24.258 42.4648 24.4653C42.5104 24.6727 42.5788 24.8481 42.6699 24.9917C42.7611 25.133 42.8761 25.2412 43.0151 25.3164C43.1541 25.3893 43.3182 25.4258 43.5073 25.4258C43.6987 25.4258 43.8639 25.3882 44.0029 25.313C44.1442 25.2355 44.2593 25.125 44.3481 24.9814C44.4393 24.8379 44.5065 24.6636 44.5498 24.4585C44.5954 24.2511 44.6182 24.0176 44.6182 23.7578C44.6182 23.2246 44.527 22.8167 44.3447 22.5342C44.1624 22.2493 43.8833 22.1069 43.5073 22.1069ZM50.3091 24.7627C50.3296 24.8766 50.349 24.9757 50.3672 25.0601C50.3877 25.1421 50.4105 25.2104 50.4355 25.2651C50.4629 25.3198 50.4948 25.3608 50.5312 25.3882C50.57 25.4132 50.6167 25.4258 50.6714 25.4258C50.7511 25.4258 50.8115 25.403 50.8525 25.3574C50.8936 25.3118 50.9141 25.2344 50.9141 25.125L51.3105 25.0771C51.3105 25.0794 51.3105 25.0863 51.3105 25.0977C51.3105 25.1068 51.3094 25.1182 51.3071 25.1318C51.3071 25.1432 51.3071 25.1546 51.3071 25.166C51.3071 25.1751 51.3071 25.1808 51.3071 25.1831C51.3026 25.3426 51.2775 25.4793 51.2319 25.5933C51.1886 25.7072 51.126 25.8018 51.0439 25.877C50.9619 25.9499 50.8628 26.0034 50.7466 26.0376C50.6326 26.0718 50.5028 26.0889 50.3569 26.0889C50.1815 26.0889 50.0288 26.0638 49.8989 26.0137C49.769 25.9635 49.6574 25.8883 49.564 25.7881C49.4705 25.6878 49.3931 25.5625 49.3315 25.4121C49.27 25.2594 49.2199 25.0806 49.1812 24.8755C49.147 24.6932 49.106 24.5417 49.0581 24.4209C49.0125 24.3001 48.9613 24.1999 48.9043 24.1201C48.8428 24.07 48.7687 24.0369 48.6821 24.021C48.5955 24.0028 48.4884 23.9937 48.3608 23.9937H48.0635L48.0601 25.1455C48.0601 25.1979 48.0646 25.2412 48.0737 25.2754C48.0851 25.3073 48.1034 25.3324 48.1284 25.3506C48.1535 25.3665 48.1877 25.3779 48.231 25.3848C48.2743 25.3893 48.3301 25.3916 48.3984 25.3916H48.5488V26C48.4645 26 48.3802 26 48.2959 26C48.2139 26 48.1296 26 48.043 26C47.9564 25.9977 47.8641 25.9966 47.7661 25.9966C47.6704 25.9943 47.5667 25.9932 47.4551 25.9932C47.3457 25.9932 47.2454 25.9943 47.1543 25.9966C47.0654 25.9966 46.9811 25.9966 46.9014 25.9966C46.8216 25.9966 46.7441 25.9977 46.6689 26C46.596 26 46.5208 26 46.4434 26V25.3916H46.5527C46.6507 25.3916 46.7259 25.3848 46.7783 25.3711C46.833 25.3551 46.8717 25.3324 46.8945 25.3027C46.9196 25.2731 46.9333 25.2367 46.9355 25.1934C46.9401 25.1501 46.9424 25.0999 46.9424 25.043V22.4897C46.9424 22.4259 46.939 22.3724 46.9321 22.3291C46.9276 22.2835 46.9116 22.2471 46.8843 22.2197C46.8592 22.1901 46.8193 22.1696 46.7646 22.1582C46.71 22.1445 46.6336 22.1377 46.5356 22.1377H46.4434V21.5293H48.6274C48.7938 21.5293 48.9578 21.535 49.1196 21.5464C49.2837 21.5578 49.4386 21.5806 49.5845 21.6147C49.7326 21.6466 49.8693 21.6911 49.9946 21.748C50.1222 21.805 50.2316 21.8791 50.3228 21.9702C50.4162 22.0614 50.4891 22.1719 50.5415 22.3018C50.5939 22.4316 50.6201 22.5843 50.6201 22.7598C50.6201 22.8828 50.5996 23.0002 50.5586 23.1118C50.5176 23.2212 50.4572 23.3203 50.3774 23.4092C50.3 23.498 50.2043 23.5744 50.0903 23.6382C49.9787 23.702 49.8511 23.7498 49.7075 23.7817C49.7759 23.8136 49.8408 23.8535 49.9023 23.9014C49.9661 23.9492 50.0243 24.0107 50.0767 24.0859C50.1291 24.1611 50.1746 24.2534 50.2134 24.3628C50.2544 24.4722 50.2863 24.6055 50.3091 24.7627ZM48.0601 23.498H48.5898C48.7425 23.498 48.8747 23.4878 48.9863 23.4673C49.1003 23.4445 49.1937 23.4069 49.2666 23.3545C49.3395 23.3021 49.3942 23.2337 49.4307 23.1494C49.4671 23.0651 49.4854 22.9591 49.4854 22.8315C49.4854 22.6971 49.4637 22.5866 49.4204 22.5C49.3771 22.4111 49.3133 22.3416 49.229 22.2915C49.147 22.2391 49.0433 22.2038 48.918 22.1855C48.7949 22.165 48.6514 22.1548 48.4873 22.1548H48.0601V23.498ZM51.4678 21.5293C51.4837 21.5293 51.5236 21.5304 51.5874 21.5327C51.6535 21.5327 51.7275 21.5339 51.8096 21.5361C51.8916 21.5361 51.9736 21.5373 52.0557 21.5396C52.14 21.5396 52.2095 21.5396 52.2642 21.5396C52.3735 21.5396 52.4806 21.5396 52.5854 21.5396C52.6903 21.5396 52.7974 21.5396 52.9067 21.5396C53.0161 21.5373 53.13 21.5361 53.2485 21.5361C53.367 21.5339 53.4946 21.5316 53.6313 21.5293V22.1377H53.4092C53.3317 22.1377 53.2713 22.1491 53.228 22.1719C53.1847 22.1947 53.1517 22.2243 53.1289 22.2607C53.1084 22.2972 53.0959 22.3394 53.0913 22.3872C53.0868 22.4328 53.0845 22.4795 53.0845 22.5273V23.9424C53.0845 24.3503 53.0856 24.8117 53.0879 25.3267H54.1919C54.2785 25.3267 54.3457 25.3084 54.3936 25.272C54.4437 25.2355 54.4801 25.182 54.5029 25.1113C54.528 25.0384 54.5439 24.9495 54.5508 24.8447C54.5576 24.7399 54.561 24.6191 54.561 24.4824H55.1865V26H51.4678V25.3916H51.6284C51.7104 25.3916 51.7743 25.3813 51.8198 25.3608C51.8677 25.3403 51.9019 25.313 51.9224 25.2788C51.9451 25.2446 51.9588 25.2036 51.9634 25.1558C51.9679 25.1079 51.9702 25.0566 51.9702 25.002V22.6196V22.4863C51.9702 22.4408 51.9668 22.3975 51.96 22.3564C51.9531 22.3132 51.9383 22.2756 51.9155 22.2437C51.8927 22.2118 51.8586 22.1867 51.813 22.1685C51.7674 22.1479 51.7059 22.1377 51.6284 22.1377H51.4678V21.5293ZM57.4458 21.5293C58.4165 21.5293 59.14 21.7139 59.6162 22.083C60.0924 22.4499 60.3306 23.0024 60.3306 23.7407C60.3306 24.1668 60.2633 24.5246 60.1289 24.814C59.9967 25.1011 59.8076 25.3335 59.5615 25.5112C59.3177 25.6867 59.0226 25.812 58.6763 25.8872C58.3322 25.9624 57.9471 26 57.521 26H55.5317V25.3916H55.6992C55.7699 25.3916 55.8257 25.3825 55.8667 25.3643C55.9077 25.3438 55.9385 25.3175 55.959 25.2856C55.9795 25.2515 55.992 25.2116 55.9966 25.166C56.0034 25.1204 56.0068 25.0703 56.0068 25.0156C56.0068 25.0088 56.0068 24.9678 56.0068 24.8926C56.0068 24.8151 56.0057 24.716 56.0034 24.5952C56.0034 24.4744 56.0034 24.3377 56.0034 24.1851C56.0034 24.0324 56.0034 23.8774 56.0034 23.7202V22.4624C56.0034 22.4146 55.9989 22.3713 55.9897 22.3325C55.9829 22.2938 55.9681 22.2596 55.9453 22.23C55.9248 22.2004 55.894 22.1776 55.853 22.1616C55.8143 22.1434 55.763 22.1343 55.6992 22.1343H55.5317V21.5293H57.4458ZM57.1245 25.3369H57.6167C57.8674 25.3369 58.0861 25.3062 58.2729 25.2446C58.4621 25.1831 58.6182 25.0874 58.7412 24.9575C58.8665 24.8254 58.96 24.6579 59.0215 24.4551C59.0853 24.2523 59.1172 24.0096 59.1172 23.7271C59.1172 23.1938 58.993 22.8053 58.7446 22.5615C58.4985 22.3154 58.1214 22.1924 57.6133 22.1924H57.1245V25.3369Z" fill="#5213A3"/>
</svg>
