<svg width="216" height="108" viewBox="0 0 216 108" fill="none" xmlns="http://www.w3.org/2000/svg">
<path d="M124.989 13.16C116.046 9.33031 114.406 16.6917 114.243 18.2814H114.228V18.4891C114.22 18.6156 114.212 18.6969 114.212 18.6969H114.228C115.106 22.9511 115.751 24.9021 124.196 24.3331C132.463 23.7731 132.72 20.7834 132.72 20.7834C132.72 20.7834 133.528 16.8181 124.989 13.16ZM119.247 15.6168C119.247 15.6168 120.397 13.711 122.192 16.3033C122.184 16.3033 120.56 18.164 119.247 15.6168ZM104.026 94.65C103.179 95.1107 101.128 96.1494 98.0121 97.3507C92.5422 99.4553 99.2397 99.4462 99.2397 99.4462C99.2397 99.4462 101.213 99.2656 104.08 98.2359L104.026 94.65ZM112.876 35.2261L112.751 43.563C116.395 43.9152 119.441 45.1346 120.296 48.0792C122.596 56.0005 110.56 56.8135 100.801 60.58C90.6386 64.5 91.7496 79.2679 103.832 81.9415L103.731 75.2305C103.606 75.1853 103.482 75.1311 103.365 75.0859C102.122 74.5169 100.972 73.4962 100.638 72.4937C100.312 70.371 101.866 67.3091 106.978 65.9542C116.263 63.4793 124.103 61.8806 126.434 56.6689C132.347 43.4365 121.881 35.4068 112.876 35.2261Z" fill="#CCB5E9"/>
<path d="M115.82 14.2256C106.481 14.894 89.3176 17.4592 86.2719 27.9367C82.3792 41.3498 93.591 45.3782 99.0843 44.5743C100.289 44.4027 101.648 44.2943 103.241 43.9511L103.125 36.2826C94.3991 36.68 91.4932 33.6 94.772 29.3729C98.9289 24.0167 109.1 22.725 115.548 22.4631M113.015 76.8289C112.744 76.8018 112.495 76.7747 112.238 76.7476L112.145 82.718C114.95 83.4496 113.94 85.2471 112.145 87.9026C112.122 87.9387 112.091 87.9749 112.068 88.011L111.974 93.8911C112.643 93.3762 113.311 92.8252 113.979 92.211C116.287 90.0794 116.815 89.1852 118.221 87.189C120.389 83.3683 120.296 77.5244 113.015 76.8289Z" fill="#CCB5E9"/>
<path d="M104.344 25.7603L104.95 57.0755C106.986 56.4613 109.511 55.6665 111.073 55.1697L111.671 24.4235C109.884 24.6222 107.033 25.0197 104.344 25.7603ZM108.773 67.3905C108.773 67.3905 106.38 67.9505 105.176 68.5195L105.875 104.532C105.875 106.455 106.831 108 107.996 108C109.162 108 110.117 106.735 110.117 104.532L110.848 66.8214L108.773 67.3905ZM107.88 0C105.603 0 104.096 2.16777 104.096 4.82328V9.98076L104.181 14.3253C105.494 13.9911 107.973 13.4673 111.959 12.9795L112.013 9.9898V4.83232C112.021 2.16777 110.156 0 107.88 0Z" fill="#CCB5E9"/>
<path d="M22.0039 32.5654C22.0951 32.5654 22.2546 32.5687 22.4824 32.5752C22.7168 32.5752 22.974 32.5785 23.2539 32.585C23.5339 32.585 23.8171 32.585 24.1035 32.585C24.39 32.585 24.6341 32.585 24.8359 32.585C25.0117 32.585 25.2168 32.585 25.4512 32.585C25.6921 32.585 25.9427 32.585 26.2031 32.585C26.4701 32.5785 26.737 32.5752 27.0039 32.5752C27.2708 32.5687 27.528 32.5654 27.7754 32.5654L29.2598 37.0381C29.4421 37.598 29.6211 38.1449 29.7969 38.6787C29.9792 39.2126 30.1387 39.6911 30.2754 40.1143C30.4121 40.5309 30.5228 40.8695 30.6074 41.1299C30.6986 41.3838 30.7441 41.5107 30.7441 41.5107C30.8027 41.2894 30.9069 40.9508 31.0566 40.4951C31.2064 40.0329 31.3789 39.512 31.5742 38.9326C31.776 38.3467 31.9876 37.7314 32.209 37.0869C32.4303 36.4424 32.6419 35.8271 32.8438 35.2412C33.0456 34.6488 33.2246 34.1149 33.3809 33.6396C33.5436 33.1644 33.6608 32.8063 33.7324 32.5654C33.9668 32.5654 34.2272 32.5687 34.5137 32.5752C34.8066 32.5752 35.0996 32.5785 35.3926 32.585C35.6921 32.585 35.9785 32.585 36.252 32.585C36.5254 32.585 36.7598 32.585 36.9551 32.585C37.1113 32.585 37.3164 32.585 37.5703 32.585C37.8307 32.585 38.0911 32.585 38.3516 32.585C38.612 32.5785 38.8464 32.5752 39.0547 32.5752C39.263 32.5687 39.403 32.5654 39.4746 32.5654V34.3037H38.9766C38.7747 34.3037 38.6152 34.32 38.498 34.3525C38.3874 34.3786 38.3027 34.4209 38.2441 34.4795C38.1921 34.5316 38.1595 34.5999 38.1465 34.6846C38.1335 34.7692 38.127 34.8669 38.127 34.9775V38.8643C38.127 39.9906 38.1302 41.2699 38.1367 42.7021C38.1367 42.8779 38.1465 43.0244 38.166 43.1416C38.1855 43.2588 38.2246 43.3532 38.2832 43.4248C38.3483 43.4899 38.4395 43.5355 38.5566 43.5615C38.6738 43.5876 38.8301 43.6006 39.0254 43.6006H39.5039V45.3389C39.2565 45.3389 39.0156 45.3389 38.7812 45.3389C38.5469 45.3324 38.3027 45.3291 38.0488 45.3291C37.8014 45.3291 37.5378 45.3291 37.2578 45.3291C36.9844 45.3226 36.6882 45.3193 36.3691 45.3193C36.0892 45.3193 35.8385 45.3226 35.6172 45.3291C35.4023 45.3291 35.1973 45.3291 35.002 45.3291C34.8132 45.3291 34.6276 45.3324 34.4453 45.3389C34.2695 45.3389 34.084 45.3389 33.8887 45.3389V43.6006H34.2891C34.5104 43.6006 34.6829 43.5745 34.8066 43.5225C34.9368 43.4639 35.0345 43.3825 35.0996 43.2783C35.1712 43.1676 35.2168 43.0342 35.2363 42.8779C35.2559 42.7217 35.2656 42.5459 35.2656 42.3506V34.1182L34.709 35.6514L31.252 45.3389H29.4551C29.3965 45.1826 29.3086 44.9417 29.1914 44.6162C29.0742 44.2907 28.9375 43.9131 28.7812 43.4834C28.6315 43.0472 28.4688 42.5752 28.293 42.0674C28.1172 41.5531 27.9382 41.0355 27.7559 40.5146C27.5736 39.9873 27.3913 39.4697 27.209 38.9619C27.0332 38.4541 26.8672 37.9854 26.7109 37.5557C26.5612 37.1195 26.4277 36.7386 26.3105 36.4131C26.1999 36.0811 26.1152 35.8369 26.0566 35.6807L25.7832 34.9189C25.7507 34.8278 25.7148 34.7367 25.6758 34.6455C25.6432 34.5479 25.6139 34.4632 25.5879 34.3916C25.5553 34.307 25.526 34.2256 25.5 34.1475V42.7314C25.5 42.9268 25.5098 43.083 25.5293 43.2002C25.5553 43.3109 25.5977 43.3955 25.6562 43.4541C25.7214 43.5127 25.8092 43.5518 25.9199 43.5713C26.0371 43.5908 26.1901 43.6006 26.3789 43.6006H26.8477V45.3389C26.6589 45.3389 26.4766 45.3389 26.3008 45.3389C26.125 45.3324 25.9427 45.3291 25.7539 45.3291C25.5651 45.3291 25.3633 45.3291 25.1484 45.3291C24.9401 45.3226 24.709 45.3193 24.4551 45.3193C24.1816 45.3193 23.9342 45.3226 23.7129 45.3291C23.4915 45.3291 23.2832 45.3291 23.0879 45.3291C22.8926 45.3291 22.7005 45.3324 22.5117 45.3389C22.3294 45.3389 22.1406 45.3389 21.9453 45.3389V43.6006H22.4238C22.6582 43.6006 22.8372 43.5778 22.9609 43.5322C23.0846 43.4801 23.1725 43.4085 23.2246 43.3174C23.2767 43.2262 23.306 43.1156 23.3125 42.9854C23.3255 42.8551 23.3353 42.7054 23.3418 42.5361L23.3516 35.1924C23.3516 35.0361 23.3385 34.9027 23.3125 34.792C23.293 34.6813 23.2507 34.5902 23.1855 34.5186C23.127 34.4404 23.0391 34.3851 22.9219 34.3525C22.8047 34.32 22.6517 34.3037 22.4629 34.3037H22.0039V32.5654ZM52.0234 32.5654V36.1201H50.1191V35.7197C50.1191 35.4072 50.0866 35.1663 50.0215 34.9971C49.9564 34.8278 49.8652 34.7074 49.748 34.6357C49.6309 34.5576 49.4876 34.512 49.3184 34.499C49.1491 34.486 48.9603 34.4795 48.752 34.4795H45.4805V38.0244H47.4043C47.5475 38.0244 47.668 38.0179 47.7656 38.0049C47.8698 37.9854 47.9577 37.9463 48.0293 37.8877C48.1009 37.8291 48.1595 37.738 48.2051 37.6143C48.2572 37.4906 48.2995 37.3213 48.332 37.1064H49.1621V40.5635H48.3223C48.2832 40.3551 48.2409 40.1891 48.1953 40.0654C48.1497 39.9417 48.0911 39.8506 48.0195 39.792C47.9479 39.7269 47.8633 39.6878 47.7656 39.6748C47.668 39.6553 47.5475 39.6455 47.4043 39.6455H45.4805V43.4443H48.8887C49.1296 43.4443 49.3314 43.4281 49.4941 43.3955C49.6569 43.363 49.7871 43.2913 49.8848 43.1807C49.9889 43.07 50.0638 42.9137 50.1094 42.7119C50.1549 42.5036 50.1777 42.2269 50.1777 41.8818V41.5693H52.0625V45.3389H40.8613V43.6006H41.584C41.7533 43.6006 41.8835 43.5713 41.9746 43.5127C42.0723 43.4541 42.1439 43.3727 42.1895 43.2686C42.2415 43.1644 42.2708 43.0472 42.2773 42.917C42.2904 42.7868 42.2969 42.6468 42.2969 42.4971V35.4658C42.2969 35.3226 42.2936 35.1794 42.2871 35.0361C42.2806 34.8929 42.2546 34.766 42.209 34.6553C42.1634 34.5446 42.0918 34.4567 41.9941 34.3916C41.903 34.32 41.7663 34.2842 41.584 34.2842H40.9004V32.5654H52.0234ZM59.1523 32.5654C61.9258 32.5654 63.9928 33.0928 65.3535 34.1475C66.7142 35.1956 67.3945 36.7744 67.3945 38.8838C67.3945 40.1012 67.2025 41.1234 66.8184 41.9502C66.4408 42.7705 65.9004 43.4346 65.1973 43.9424C64.5007 44.4437 63.6576 44.8018 62.668 45.0166C61.6849 45.2314 60.5846 45.3389 59.3672 45.3389H53.6836V43.6006H54.1621C54.3639 43.6006 54.5234 43.5745 54.6406 43.5225C54.7578 43.4639 54.8457 43.389 54.9043 43.2979C54.9629 43.2002 54.9987 43.0863 55.0117 42.9561C55.0312 42.8258 55.041 42.6826 55.041 42.5264C55.041 42.5068 55.041 42.3896 55.041 42.1748C55.041 41.9535 55.0378 41.6702 55.0312 41.3252C55.0312 40.9801 55.0312 40.5895 55.0312 40.1533C55.0312 39.7171 55.0312 39.2744 55.0312 38.8252V35.2314C55.0312 35.0947 55.0182 34.971 54.9922 34.8604C54.9727 34.7497 54.9303 34.652 54.8652 34.5674C54.8066 34.4827 54.7188 34.4176 54.6016 34.3721C54.4909 34.32 54.3444 34.2939 54.1621 34.2939H53.6836V32.5654H59.1523ZM58.2344 43.4443H59.6406C60.3568 43.4443 60.9818 43.3564 61.5156 43.1807C62.056 43.0049 62.502 42.7314 62.8535 42.3604C63.2116 41.9827 63.4785 41.5042 63.6543 40.9248C63.8366 40.3454 63.9277 39.652 63.9277 38.8447C63.9277 37.3213 63.5729 36.2113 62.8633 35.5146C62.1602 34.8115 61.0827 34.46 59.6309 34.46H58.2344V43.4443ZM69.25 32.5654C69.543 32.5719 69.8099 32.5785 70.0508 32.585C70.2917 32.585 70.5163 32.585 70.7246 32.585C70.9329 32.585 71.1315 32.585 71.3203 32.585C71.5156 32.585 71.7077 32.585 71.8965 32.585C72.2871 32.585 72.6322 32.585 72.9316 32.585C73.2376 32.585 73.5176 32.585 73.7715 32.585C74.0319 32.585 74.2793 32.585 74.5137 32.585C74.7546 32.5785 75.0052 32.5719 75.2656 32.5654V34.3037H74.8555C74.6211 34.3037 74.4355 34.3265 74.2988 34.3721C74.1686 34.4111 74.0677 34.473 73.9961 34.5576C73.931 34.6357 73.8887 34.7334 73.8691 34.8506C73.8561 34.9613 73.8496 35.0882 73.8496 35.2314V42.7119C73.8496 42.8877 73.8561 43.0342 73.8691 43.1514C73.8822 43.262 73.9212 43.3532 73.9863 43.4248C74.0514 43.4899 74.1491 43.5355 74.2793 43.5615C74.416 43.5876 74.6081 43.6006 74.8555 43.6006H75.2656V45.3389C75.0247 45.3389 74.7904 45.3389 74.5625 45.3389C74.3346 45.3324 74.1003 45.3291 73.8594 45.3291C73.625 45.3291 73.3711 45.3291 73.0977 45.3291C72.8307 45.3226 72.5378 45.3193 72.2188 45.3193C71.6198 45.3193 71.0892 45.3226 70.627 45.3291C70.1712 45.3356 69.7122 45.3389 69.25 45.3389V43.6006H69.6406C69.8945 43.6006 70.0898 43.5778 70.2266 43.5322C70.3633 43.4867 70.4642 43.4183 70.5293 43.3271C70.5944 43.236 70.6302 43.1221 70.6367 42.9854C70.6497 42.8486 70.6562 42.6891 70.6562 42.5068V35.4268C70.6562 35.238 70.6497 35.0752 70.6367 34.9385C70.6237 34.7952 70.5846 34.6781 70.5195 34.5869C70.4544 34.4893 70.3535 34.4176 70.2168 34.3721C70.0801 34.3265 69.888 34.3037 69.6406 34.3037H69.25V32.5654ZM84.1133 43.6982C84.6081 43.6982 85.041 43.6462 85.4121 43.542C85.7897 43.4378 86.1055 43.2686 86.3594 43.0342C86.6133 42.7998 86.8086 42.4938 86.9453 42.1162C87.0885 41.7386 87.1732 41.2764 87.1992 40.7295L89.1914 41.1592L89.0449 44.1279C88.2767 44.6423 87.4596 45.0166 86.5938 45.251C85.7279 45.4788 84.7904 45.5928 83.7812 45.5928C82.5964 45.5928 81.5775 45.4202 80.7246 45.0752C79.8717 44.7301 79.1719 44.2581 78.625 43.6592C78.0781 43.0602 77.6745 42.3571 77.4141 41.5498C77.1536 40.7425 77.0234 39.8766 77.0234 38.9521C77.0234 37.9821 77.1699 37.0902 77.4629 36.2764C77.7624 35.4626 78.1888 34.7627 78.7422 34.1768C79.2956 33.5908 79.9694 33.1351 80.7637 32.8096C81.5579 32.484 82.4564 32.3213 83.459 32.3213C83.7585 32.3213 84.0677 32.3473 84.3867 32.3994C84.7057 32.4515 85.0117 32.5264 85.3047 32.624C85.5977 32.7217 85.8678 32.8389 86.1152 32.9756C86.3691 33.1123 86.584 33.2653 86.7598 33.4346L86.8086 32.5947H88.9766V36.5986L86.9746 36.5889C86.9225 35.8467 86.6556 35.2673 86.1738 34.8506C85.6921 34.4274 84.9954 34.2158 84.084 34.2158C83.5306 34.2158 83.0358 34.3167 82.5996 34.5186C82.1634 34.7204 81.7923 35.0199 81.4863 35.417C81.1868 35.8076 80.9557 36.2992 80.793 36.8916C80.6302 37.4775 80.5488 38.1546 80.5488 38.9229C80.5488 39.6781 80.6302 40.3519 80.793 40.9443C80.9557 41.5368 81.1901 42.0381 81.4961 42.4482C81.8021 42.8519 82.1732 43.1611 82.6094 43.376C83.0521 43.5908 83.5534 43.6982 84.1133 43.6982ZM98.6641 32.5654C99.2305 34.1019 99.748 35.5016 100.217 36.7646C100.419 37.305 100.617 37.8421 100.812 38.376C101.008 38.9033 101.187 39.3916 101.35 39.8408C101.519 40.2835 101.662 40.6644 101.779 40.9834C101.896 41.2959 101.975 41.5042 102.014 41.6084C102.176 42.0576 102.303 42.4124 102.395 42.6729C102.486 42.9333 102.587 43.1318 102.697 43.2686C102.814 43.4053 102.961 43.4964 103.137 43.542C103.312 43.5811 103.566 43.6038 103.898 43.6104V45.3389C103.514 45.3389 103.14 45.3356 102.775 45.3291C102.417 45.3226 102.001 45.3193 101.525 45.3193C100.965 45.3193 100.415 45.3226 99.875 45.3291C99.3411 45.3291 98.7617 45.3324 98.1367 45.3389V43.7275C98.1628 43.7275 98.1986 43.7275 98.2441 43.7275C98.2962 43.7275 98.3483 43.7275 98.4004 43.7275C98.4525 43.7275 98.5013 43.7275 98.5469 43.7275C98.5924 43.721 98.625 43.7178 98.6445 43.7178C98.957 43.7048 99.1719 43.6722 99.2891 43.6201C99.4062 43.568 99.4648 43.4769 99.4648 43.3467C99.4648 43.2686 99.4486 43.1742 99.416 43.0635C99.3835 42.9463 99.3411 42.8128 99.2891 42.6631L98.6641 40.8174H94.1621C94.1426 40.889 94.097 41.029 94.0254 41.2373C93.9538 41.4391 93.8757 41.6572 93.791 41.8916C93.7129 42.126 93.6413 42.3441 93.5762 42.5459C93.5111 42.7477 93.472 42.8747 93.459 42.9268C93.4264 43.0179 93.4004 43.1025 93.3809 43.1807C93.3678 43.2523 93.3613 43.3109 93.3613 43.3564C93.3613 43.4997 93.4036 43.5973 93.4883 43.6494C93.5794 43.695 93.7292 43.721 93.9375 43.7275C93.957 43.7275 93.9993 43.7308 94.0645 43.7373C94.1296 43.7373 94.2012 43.7373 94.2793 43.7373C94.3574 43.7373 94.429 43.7373 94.4941 43.7373C94.5658 43.7373 94.6146 43.7373 94.6406 43.7373V45.3389C94.2435 45.3389 93.8431 45.3356 93.4395 45.3291C93.0358 45.3226 92.5996 45.3193 92.1309 45.3193C91.903 45.3193 91.6882 45.3193 91.4863 45.3193C91.291 45.3193 91.099 45.3226 90.9102 45.3291C90.7214 45.3291 90.5293 45.3324 90.334 45.3389C90.1387 45.3389 89.9303 45.3389 89.709 45.3389V43.6006C89.9434 43.5745 90.1322 43.5518 90.2754 43.5322C90.4251 43.5127 90.5488 43.4769 90.6465 43.4248C90.7441 43.3662 90.8288 43.2848 90.9004 43.1807C90.972 43.07 91.0469 42.917 91.125 42.7217C91.1771 42.598 91.2585 42.3962 91.3691 42.1162C91.4798 41.8363 91.6068 41.5075 91.75 41.1299C91.8997 40.7523 92.0625 40.3421 92.2383 39.8994C92.4141 39.4502 92.5931 38.9945 92.7754 38.5322C92.9577 38.07 93.1367 37.6143 93.3125 37.165C93.4883 36.7158 93.651 36.3024 93.8008 35.9248C93.9505 35.5407 94.0807 35.2087 94.1914 34.9287C94.3021 34.6423 94.3835 34.4339 94.4355 34.3037L94.8848 32.5654H98.6641ZM94.6113 39.5479H98.2148L96.4668 34.4111L96.4473 34.4014L94.6113 39.5479ZM104.514 32.5654C104.559 32.5654 104.673 32.5687 104.855 32.5752C105.044 32.5752 105.256 32.5785 105.49 32.585C105.725 32.585 105.959 32.5882 106.193 32.5947C106.434 32.5947 106.633 32.5947 106.789 32.5947C107.102 32.5947 107.408 32.5947 107.707 32.5947C108.007 32.5947 108.312 32.5947 108.625 32.5947C108.938 32.5882 109.263 32.585 109.602 32.585C109.94 32.5785 110.305 32.5719 110.695 32.5654V34.3037H110.061C109.839 34.3037 109.667 34.3363 109.543 34.4014C109.419 34.4665 109.325 34.5511 109.26 34.6553C109.201 34.7594 109.165 34.8799 109.152 35.0166C109.139 35.1468 109.133 35.2803 109.133 35.417V39.46C109.133 40.6253 109.136 41.9437 109.143 43.415H112.297C112.544 43.415 112.736 43.363 112.873 43.2588C113.016 43.1546 113.12 43.0016 113.186 42.7998C113.257 42.5915 113.303 42.3376 113.322 42.0381C113.342 41.7386 113.352 41.3936 113.352 41.0029H115.139V45.3389H104.514V43.6006H104.973C105.207 43.6006 105.389 43.5713 105.52 43.5127C105.656 43.4541 105.754 43.376 105.812 43.2783C105.878 43.1807 105.917 43.0635 105.93 42.9268C105.943 42.79 105.949 42.6436 105.949 42.4873V35.6807V35.2998C105.949 35.1696 105.939 35.0459 105.92 34.9287C105.9 34.805 105.858 34.6976 105.793 34.6064C105.728 34.5153 105.63 34.4437 105.5 34.3916C105.37 34.333 105.194 34.3037 104.973 34.3037H104.514V32.5654ZM120.432 36.0029C120.314 35.6058 120.223 35.2933 120.158 35.0654C120.093 34.8376 120.015 34.6683 119.924 34.5576C119.839 34.4469 119.719 34.3786 119.562 34.3525C119.413 34.32 119.188 34.3037 118.889 34.3037V32.5654C119.305 32.5719 119.699 32.5752 120.07 32.5752C120.227 32.5752 120.386 32.5785 120.549 32.585C120.718 32.585 120.878 32.585 121.027 32.585C121.177 32.585 121.314 32.585 121.438 32.585C121.568 32.585 121.675 32.585 121.76 32.585C122.131 32.585 122.528 32.585 122.951 32.585C123.374 32.5785 123.869 32.5719 124.436 32.5654V34.3037C123.941 34.3167 123.579 34.3493 123.352 34.4014C123.234 34.499 123.176 34.6488 123.176 34.8506C123.176 34.9352 123.182 35.0296 123.195 35.1338C123.208 35.238 123.231 35.3486 123.264 35.4658C123.322 35.6742 123.4 35.9769 123.498 36.374C123.602 36.7712 123.713 37.2139 123.83 37.7021C123.954 38.1904 124.081 38.7048 124.211 39.2451C124.348 39.779 124.475 40.29 124.592 40.7783C124.715 41.2666 124.826 41.7093 124.924 42.1064C125.028 42.5036 125.109 42.8063 125.168 43.0146L127.727 33.3271H130.324L132.941 43.0244L134.855 35.2998C134.882 35.1891 134.904 35.0882 134.924 34.9971C134.95 34.9059 134.969 34.818 134.982 34.7334C134.95 34.6032 134.865 34.5055 134.729 34.4404C134.592 34.3753 134.374 34.3363 134.074 34.3232C134.042 34.3167 133.977 34.3135 133.879 34.3135C133.788 34.3135 133.726 34.3102 133.693 34.3037V32.5654C134.208 32.5719 134.657 32.5785 135.041 32.585C135.425 32.585 135.783 32.585 136.115 32.585C136.265 32.585 136.457 32.585 136.691 32.585C136.932 32.585 137.173 32.585 137.414 32.585C137.655 32.5785 137.876 32.5752 138.078 32.5752C138.286 32.5687 138.433 32.5654 138.518 32.5654V34.3037C138.283 34.3102 138.085 34.333 137.922 34.3721C137.766 34.4046 137.629 34.473 137.512 34.5771C137.395 34.6813 137.287 34.8343 137.189 35.0361C137.098 35.238 137.001 35.5081 136.896 35.8467C136.857 35.9508 136.799 36.1299 136.721 36.3838C136.649 36.6377 136.558 36.9469 136.447 37.3115C136.343 37.6696 136.226 38.07 136.096 38.5127C135.972 38.9554 135.839 39.4209 135.695 39.9092C135.559 40.3975 135.415 40.8955 135.266 41.4033C135.122 41.9046 134.979 42.3994 134.836 42.8877C134.699 43.376 134.566 43.8415 134.436 44.2842C134.305 44.7269 134.185 45.1273 134.074 45.4854H131.066L128.723 36.1982L126.359 45.4854H123.264L120.432 36.0029ZM145.568 32.3213C146.643 32.3213 147.593 32.4906 148.42 32.8291C149.253 33.1676 149.953 33.6364 150.52 34.2354C151.092 34.8278 151.525 35.5277 151.818 36.335C152.118 37.1423 152.268 38.0114 152.268 38.9424C152.268 39.8734 152.118 40.7425 151.818 41.5498C151.525 42.3571 151.096 43.0602 150.529 43.6592C149.963 44.2581 149.266 44.7301 148.439 45.0752C147.613 45.4202 146.665 45.5928 145.598 45.5928C144.517 45.5928 143.557 45.4235 142.717 45.085C141.877 44.7464 141.171 44.2809 140.598 43.6885C140.025 43.0895 139.589 42.3864 139.289 41.5791C138.99 40.7653 138.84 39.8864 138.84 38.9424C138.84 38.0114 138.986 37.1455 139.279 36.3447C139.572 35.5374 140.002 34.8376 140.568 34.2451C141.141 33.6462 141.844 33.1774 142.678 32.8389C143.518 32.4938 144.481 32.3213 145.568 32.3213ZM145.559 34.2158C144.999 34.2158 144.517 34.3232 144.113 34.5381C143.716 34.7529 143.387 35.0654 143.127 35.4756C142.873 35.8792 142.684 36.374 142.561 36.96C142.443 37.5394 142.385 38.1937 142.385 38.9229C142.385 39.6846 142.45 40.3617 142.58 40.9541C142.71 41.5465 142.906 42.0479 143.166 42.458C143.426 42.8617 143.755 43.1709 144.152 43.3857C144.549 43.5941 145.018 43.6982 145.559 43.6982C146.105 43.6982 146.577 43.5908 146.975 43.376C147.378 43.1546 147.707 42.8389 147.961 42.4287C148.221 42.0186 148.413 41.5205 148.537 40.9346C148.667 40.3421 148.732 39.6748 148.732 38.9326C148.732 37.4092 148.472 36.2438 147.951 35.4365C147.43 34.6227 146.633 34.2158 145.559 34.2158ZM164.992 41.8037C165.051 42.1292 165.106 42.4124 165.158 42.6533C165.217 42.8877 165.282 43.083 165.354 43.2393C165.432 43.3955 165.523 43.5127 165.627 43.5908C165.738 43.6624 165.871 43.6982 166.027 43.6982C166.255 43.6982 166.428 43.6331 166.545 43.5029C166.662 43.3727 166.721 43.1514 166.721 42.8389L167.854 42.7021C167.854 42.7087 167.854 42.7282 167.854 42.7607C167.854 42.7868 167.85 42.8193 167.844 42.8584C167.844 42.891 167.844 42.9235 167.844 42.9561C167.844 42.9821 167.844 42.9984 167.844 43.0049C167.831 43.4606 167.759 43.8512 167.629 44.1768C167.505 44.5023 167.326 44.7725 167.092 44.9873C166.857 45.1956 166.574 45.3486 166.242 45.4463C165.917 45.5439 165.546 45.5928 165.129 45.5928C164.628 45.5928 164.191 45.5212 163.82 45.3779C163.449 45.2347 163.13 45.0199 162.863 44.7334C162.596 44.4469 162.375 44.0889 162.199 43.6592C162.023 43.223 161.88 42.7119 161.77 42.126C161.672 41.6051 161.555 41.1722 161.418 40.8271C161.288 40.4821 161.141 40.1956 160.979 39.9678C160.803 39.8245 160.591 39.7301 160.344 39.6846C160.096 39.6325 159.79 39.6064 159.426 39.6064H158.576L158.566 42.8975C158.566 43.0472 158.579 43.1709 158.605 43.2686C158.638 43.3597 158.69 43.4313 158.762 43.4834C158.833 43.529 158.931 43.5615 159.055 43.5811C159.178 43.5941 159.338 43.6006 159.533 43.6006H159.963V45.3389C159.722 45.3389 159.481 45.3389 159.24 45.3389C159.006 45.3389 158.765 45.3389 158.518 45.3389C158.27 45.3324 158.007 45.3291 157.727 45.3291C157.453 45.3226 157.157 45.3193 156.838 45.3193C156.525 45.3193 156.239 45.3226 155.979 45.3291C155.725 45.3291 155.484 45.3291 155.256 45.3291C155.028 45.3291 154.807 45.3324 154.592 45.3389C154.383 45.3389 154.169 45.3389 153.947 45.3389V43.6006H154.26C154.54 43.6006 154.755 43.5811 154.904 43.542C155.061 43.4964 155.171 43.4313 155.236 43.3467C155.308 43.262 155.347 43.1579 155.354 43.0342C155.367 42.9105 155.373 42.7673 155.373 42.6045V35.3096C155.373 35.1273 155.363 34.9743 155.344 34.8506C155.331 34.7204 155.285 34.6162 155.207 34.5381C155.135 34.4535 155.021 34.3949 154.865 34.3623C154.709 34.3232 154.491 34.3037 154.211 34.3037H153.947V32.5654H160.188C160.663 32.5654 161.132 32.5817 161.594 32.6143C162.062 32.6468 162.505 32.7119 162.922 32.8096C163.345 32.9007 163.736 33.0277 164.094 33.1904C164.458 33.3532 164.771 33.5648 165.031 33.8252C165.298 34.0856 165.507 34.4014 165.656 34.7725C165.806 35.1436 165.881 35.5798 165.881 36.0811C165.881 36.4326 165.822 36.7679 165.705 37.0869C165.588 37.3994 165.415 37.6826 165.188 37.9365C164.966 38.1904 164.693 38.4085 164.367 38.5908C164.048 38.7731 163.684 38.9098 163.273 39.001C163.469 39.0921 163.654 39.2061 163.83 39.3428C164.012 39.4795 164.178 39.6553 164.328 39.8701C164.478 40.085 164.608 40.3486 164.719 40.6611C164.836 40.9736 164.927 41.3545 164.992 41.8037ZM158.566 38.1904H160.08C160.516 38.1904 160.894 38.1611 161.213 38.1025C161.538 38.0374 161.805 37.93 162.014 37.7803C162.222 37.6305 162.378 37.4352 162.482 37.1943C162.587 36.9535 162.639 36.6507 162.639 36.2861C162.639 35.902 162.577 35.5863 162.453 35.3389C162.329 35.085 162.147 34.8864 161.906 34.7432C161.672 34.5934 161.376 34.4925 161.018 34.4404C160.666 34.3818 160.256 34.3525 159.787 34.3525H158.566V38.1904ZM168.303 32.5654C168.348 32.5654 168.462 32.5687 168.645 32.5752C168.833 32.5752 169.045 32.5785 169.279 32.585C169.514 32.585 169.748 32.5882 169.982 32.5947C170.223 32.5947 170.422 32.5947 170.578 32.5947C170.891 32.5947 171.197 32.5947 171.496 32.5947C171.796 32.5947 172.102 32.5947 172.414 32.5947C172.727 32.5882 173.052 32.585 173.391 32.585C173.729 32.5785 174.094 32.5719 174.484 32.5654V34.3037H173.85C173.628 34.3037 173.456 34.3363 173.332 34.4014C173.208 34.4665 173.114 34.5511 173.049 34.6553C172.99 34.7594 172.954 34.8799 172.941 35.0166C172.928 35.1468 172.922 35.2803 172.922 35.417V39.46C172.922 40.6253 172.925 41.9437 172.932 43.415H176.086C176.333 43.415 176.525 43.363 176.662 43.2588C176.805 43.1546 176.91 43.0016 176.975 42.7998C177.046 42.5915 177.092 42.3376 177.111 42.0381C177.131 41.7386 177.141 41.3936 177.141 41.0029H178.928V45.3389H168.303V43.6006H168.762C168.996 43.6006 169.178 43.5713 169.309 43.5127C169.445 43.4541 169.543 43.376 169.602 43.2783C169.667 43.1807 169.706 43.0635 169.719 42.9268C169.732 42.79 169.738 42.6436 169.738 42.4873V35.6807V35.2998C169.738 35.1696 169.729 35.0459 169.709 34.9287C169.689 34.805 169.647 34.6976 169.582 34.6064C169.517 34.5153 169.419 34.4437 169.289 34.3916C169.159 34.333 168.983 34.3037 168.762 34.3037H168.303V32.5654ZM185.383 32.5654C188.156 32.5654 190.223 33.0928 191.584 34.1475C192.945 35.1956 193.625 36.7744 193.625 38.8838C193.625 40.1012 193.433 41.1234 193.049 41.9502C192.671 42.7705 192.131 43.4346 191.428 43.9424C190.731 44.4437 189.888 44.8018 188.898 45.0166C187.915 45.2314 186.815 45.3389 185.598 45.3389H179.914V43.6006H180.393C180.594 43.6006 180.754 43.5745 180.871 43.5225C180.988 43.4639 181.076 43.389 181.135 43.2979C181.193 43.2002 181.229 43.0863 181.242 42.9561C181.262 42.8258 181.271 42.6826 181.271 42.5264C181.271 42.5068 181.271 42.3896 181.271 42.1748C181.271 41.9535 181.268 41.6702 181.262 41.3252C181.262 40.9801 181.262 40.5895 181.262 40.1533C181.262 39.7171 181.262 39.2744 181.262 38.8252V35.2314C181.262 35.0947 181.249 34.971 181.223 34.8604C181.203 34.7497 181.161 34.652 181.096 34.5674C181.037 34.4827 180.949 34.4176 180.832 34.3721C180.721 34.32 180.575 34.2939 180.393 34.2939H179.914V32.5654H185.383ZM184.465 43.4443H185.871C186.587 43.4443 187.212 43.3564 187.746 43.1807C188.286 43.0049 188.732 42.7314 189.084 42.3604C189.442 41.9827 189.709 41.5042 189.885 40.9248C190.067 40.3454 190.158 39.652 190.158 38.8447C190.158 37.3213 189.803 36.2113 189.094 35.5146C188.391 34.8115 187.313 34.46 185.861 34.46H184.465V43.4443Z" fill="#5213A3"/>
</svg>
