<svg width="80" height="86" viewBox="0 0 80 86" fill="none" xmlns="http://www.w3.org/2000/svg">
<path d="M79.5 42.7972C79.5 66.1897 61.784 85.0944 40 85.0944C18.216 85.0944 0.5 66.1897 0.5 42.7972C0.5 19.4047 18.216 0.5 40 0.5C61.784 0.5 79.5 19.4047 79.5 42.7972Z" fill="white" stroke="white"/>
<path d="M40 12.6992C23.44 12.6992 10 26.1392 10 42.6992C10 59.2592 23.44 72.6992 40 72.6992C56.56 72.6992 70 59.2592 70 42.6992C70 26.1392 56.56 12.6992 40 12.6992ZM53.92 33.0992C53.47 37.8392 51.52 49.3592 50.53 54.6692C50.11 56.9192 49.27 57.6692 48.49 57.7592C46.75 57.9092 45.43 56.6192 43.75 55.5092C41.11 53.7692 39.61 52.6892 37.06 51.0092C34.09 49.0592 36.01 47.9792 37.72 46.2392C38.17 45.7892 45.85 38.7992 46 38.1692C46.0208 38.0738 46.0181 37.9747 45.9919 37.8806C45.9658 37.7865 45.9171 37.7002 45.85 37.6292C45.67 37.4792 45.43 37.5392 45.22 37.5692C44.95 37.6292 40.75 40.4192 32.56 45.9392C31.36 46.7492 30.28 47.1692 29.32 47.1392C28.24 47.1092 26.2 46.5392 24.67 46.0292C22.78 45.4292 21.31 45.0992 21.43 44.0492C21.49 43.5092 22.24 42.9692 23.65 42.3992C32.41 38.5892 38.23 36.0692 41.14 34.8692C49.48 31.3892 51.19 30.7892 52.33 30.7892C52.57 30.7892 53.14 30.8492 53.5 31.1492C53.8 31.3892 53.89 31.7192 53.92 31.9592C53.89 32.1392 53.95 32.6792 53.92 33.0992Z" fill="#896DAD"/>
</svg>
