<svg width="25" height="25" viewBox="0 0 25 25" fill="none" xmlns="http://www.w3.org/2000/svg">
<path d="M4.03957 0.626108C3.59734 0.214035 3.01243 -0.0102999 2.40807 0.000363448C1.8037 0.0110267 1.22707 0.255856 0.799655 0.683272C0.372238 1.11069 0.127409 1.68732 0.116746 2.29169C0.106083 2.89605 0.330418 3.48096 0.74249 3.92319L9.20292 12.3836L0.74249 20.844C0.513291 21.0576 0.329457 21.3152 0.201953 21.6013C0.0744495 21.8875 0.00588966 22.1964 0.000363056 22.5096C-0.00516355 22.8229 0.0524564 23.134 0.169786 23.4245C0.287115 23.7149 0.46175 23.9788 0.683273 24.2003C0.904795 24.4219 1.16867 24.5965 1.45915 24.7138C1.74963 24.8312 2.06076 24.8888 2.37399 24.8833C2.68722 24.8777 2.99613 24.8092 3.28229 24.6817C3.56845 24.5542 3.826 24.3703 4.03957 24.1411L12.5 15.6807L20.9604 24.1411C21.174 24.3703 21.4315 24.5542 21.7177 24.6817C22.0039 24.8092 22.3128 24.8777 22.626 24.8833C22.9392 24.8888 23.2504 24.8312 23.5409 24.7138C23.8313 24.5965 24.0952 24.4219 24.3167 24.2003C24.5382 23.9788 24.7129 23.7149 24.8302 23.4245C24.9475 23.134 25.0052 22.8229 24.9996 22.5096C24.9941 22.1964 24.9255 21.8875 24.798 21.6013C24.6705 21.3152 24.4867 21.0576 24.2575 20.844L15.7971 12.3836L24.2575 3.92319C24.6696 3.48096 24.8939 2.89605 24.8833 2.29169C24.8726 1.68732 24.6278 1.11069 24.2003 0.683272C23.7729 0.255856 23.1963 0.0110267 22.5919 0.000363448C21.9876 -0.0102999 21.4027 0.214035 20.9604 0.626108L12.5 9.08654L4.03957 0.626108Z" fill="#AD81E4"/>
</svg>
