<svg width="80" height="86" viewBox="0 0 80 86" fill="none" xmlns="http://www.w3.org/2000/svg">
<path d="M79.5 42.7972C79.5 66.1897 61.784 85.0944 40 85.0944C18.216 85.0944 0.5 66.1897 0.5 42.7972C0.5 19.4047 18.216 0.5 40 0.5C61.784 0.5 79.5 19.4047 79.5 42.7972Z" fill="white" stroke="white"/>
<path d="M40 12.6992C23.4313 12.6992 10 26.1305 10 42.6992C10 59.268 23.4313 72.6992 40 72.6992C56.5687 72.6992 70 59.268 70 42.6992C70 26.1305 56.5687 12.6992 40 12.6992ZM51.5375 46.5461C51.5375 46.5461 54.1906 49.1648 54.8437 50.3805C54.8625 50.4055 54.8719 50.4305 54.8781 50.443C55.1437 50.8898 55.2062 51.2367 55.075 51.4961C54.8562 51.9273 54.1062 52.1398 53.85 52.1586H49.1625C48.8375 52.1586 48.1562 52.0742 47.3312 51.5055C46.6969 51.0617 46.0719 50.3336 45.4625 49.6242C44.5531 48.568 43.7656 47.6555 42.9719 47.6555C42.8711 47.6553 42.7709 47.6711 42.675 47.7023C42.075 47.8961 41.3062 48.7523 41.3062 51.0336C41.3062 51.7461 40.7437 52.1555 40.3469 52.1555H38.2C37.4687 52.1555 33.6594 51.8992 30.2844 48.3398C26.1531 43.9805 22.4344 35.2367 22.4031 35.1555C22.1687 34.5898 22.6531 34.2867 23.1812 34.2867H27.9156C28.5469 34.2867 28.7531 34.6711 28.8969 35.0117C29.0656 35.4086 29.6844 36.9867 30.7 38.7617C32.3469 41.6555 33.3562 42.8305 34.1656 42.8305C34.3174 42.8287 34.4664 42.7901 34.6 42.718C35.6562 42.1305 35.4594 38.3648 35.4125 37.5836C35.4125 37.4367 35.4094 35.8992 34.8687 35.1617C34.4812 34.6273 33.8219 34.4242 33.4219 34.3492C33.5838 34.1258 33.7971 33.9447 34.0437 33.8211C34.7687 33.4586 36.075 33.4055 37.3719 33.4055H38.0938C39.5 33.4242 39.8625 33.5148 40.3719 33.643C41.4031 33.8898 41.425 34.5555 41.3344 36.8336C41.3062 37.4805 41.2781 38.2117 41.2781 39.0742C41.2781 39.2617 41.2687 39.4617 41.2687 39.6742C41.2375 40.8336 41.2 42.1492 42.0187 42.6898C42.1255 42.7568 42.2489 42.7925 42.375 42.793C42.6594 42.793 43.5156 42.793 45.8344 38.8148C46.5495 37.5344 47.1709 36.2038 47.6937 34.8336C47.7406 34.7523 47.8781 34.5023 48.0406 34.4055C48.1605 34.3443 48.2935 34.3132 48.4281 34.3148H53.9937C54.6 34.3148 55.0156 34.4055 55.0937 34.6398C55.2312 35.0117 55.0687 36.1461 52.5281 39.5867L51.3937 41.0836C49.0906 44.1023 49.0906 44.2555 51.5375 46.5461Z" fill="#896DAD"/>
</svg>
